<svg width="61" height="60" viewBox="0 0 61 60" fill="none" xmlns="http://www.w3.org/2000/svg">
<g clip-path="url(#clip0_1039_2683)">
<path d="M56.0224 26.4074H52.0249C51.3274 26.4074 50.7649 26.9774 50.7649 27.6674V28.4699C50.7649 29.5799 49.9399 30.1649 49.0999 30.4199C48.1099 27.8174 46.5199 23.6174 46.3849 23.2724C46.1749 22.7399 44.6899 21.7349 39.6574 21.1949C39.6349 21.2699 39.6274 21.3449 39.5974 21.4199C39.4099 21.9974 39.1699 22.5074 38.9074 23.0024C42.2299 23.3249 44.6524 23.7974 44.7499 24.1799C44.8699 24.6524 45.6949 27.9299 46.3324 30.4949C44.0149 30.7649 41.1424 32.4674 31.5274 32.4674C31.0174 32.4674 30.5299 32.4599 30.0499 32.4524H30.0424C29.6974 32.4449 29.3749 32.4374 29.0524 32.4224C28.9099 32.4149 28.7599 32.4149 28.6174 32.4074C28.2649 32.3924 27.9274 32.3774 27.5974 32.3549C27.5749 32.3549 27.5449 32.3549 27.5149 32.3474C26.6299 32.2949 25.8199 32.2274 25.0774 32.1449C24.8749 32.1224 24.6724 32.0999 24.4774 32.0774C24.3649 32.0624 24.2524 32.0474 24.1399 32.0324C23.8324 31.9949 23.5399 31.9499 23.2624 31.9124C23.2099 31.9049 23.1649 31.8974 23.1124 31.8899C22.8499 31.8449 22.5949 31.8074 22.3549 31.7624C22.3024 31.7549 22.2499 31.7474 22.2049 31.7324C21.9574 31.6874 21.7174 31.6424 21.4849 31.5899C21.4024 31.5749 21.3199 31.5599 21.2449 31.5374C21.0499 31.4924 20.8549 31.4549 20.6674 31.4099C18.8824 30.9974 17.7349 30.5999 16.7074 30.4799C17.3524 27.9149 18.1699 24.6374 18.2899 24.1649C18.3874 23.7824 20.7874 23.3099 24.0874 22.9949C23.7724 22.4324 23.5174 21.8249 23.3299 21.1949C18.3424 21.7349 16.8724 22.7399 16.6624 23.2649C16.5199 23.6099 14.9299 27.8099 13.9474 30.4124C13.1074 30.1574 12.2824 29.5724 12.2824 28.4624V27.6599C12.2824 26.9624 11.7124 26.3999 11.0224 26.3999H7.02489C6.32739 26.3999 5.76489 26.9699 5.76489 27.6599V28.6199C5.76489 29.3174 6.32739 29.9849 7.00989 30.1124L10.3099 30.7199C11.1124 30.8699 12.1474 31.4024 12.0799 32.2199C10.5499 33.6299 9.70989 35.5724 9.70989 36.9299C9.70989 39.2474 9.70989 41.7374 9.70989 44.9249C9.70989 45.6149 10.2874 46.1774 11.2549 46.6424V51.8024C11.2549 52.4099 11.7499 52.9049 12.3574 52.9049H16.4449C17.0524 52.9049 17.5474 52.4099 17.5474 51.8024V48.0974C23.8099 48.8549 31.5274 48.6899 31.5274 48.6899C31.5274 48.6899 39.2524 48.8549 45.5074 48.0974V51.8024C45.5074 52.4099 46.0024 52.9049 46.6099 52.9049H50.6974C51.3049 52.9049 51.7999 52.4099 51.7999 51.8024V46.6499C52.7674 46.1849 53.3449 45.6224 53.3449 44.9324C53.3449 41.7374 53.0149 39.3374 52.7674 36.9374C52.6399 35.7074 52.1599 33.9824 51.0874 32.6099C50.5849 31.5749 51.8224 30.8924 52.7449 30.7274L56.0449 30.1199C56.7274 29.9924 57.2899 29.3249 57.2899 28.6274V27.6674C57.2824 26.9774 56.7124 26.4074 56.0224 26.4074ZM19.8574 40.9724C19.8574 41.5799 19.3624 42.0074 18.7624 41.9249L17.2324 41.7074C16.6324 41.6249 15.6949 41.3249 15.1549 41.0474L13.6324 40.2674C13.0924 39.9899 12.6499 39.2624 12.6499 38.6549V37.7174C12.6499 37.1099 13.1449 36.6449 13.7524 36.6899L15.1399 36.7874C15.7474 36.8324 16.7299 36.9749 17.3224 37.1099L18.7849 37.4474C19.3774 37.5824 19.8649 38.1899 19.8649 38.7974V40.9724H19.8574ZM38.6224 45.0599C38.3449 45.9524 37.3399 46.7024 36.3799 46.7399L32.7799 46.8599C31.8274 46.8899 30.2599 46.8899 29.3074 46.8599L25.7074 46.7399C24.7549 46.7099 23.7424 45.9524 23.4649 45.0599C23.1874 44.1674 23.7424 43.4399 24.6949 43.4399H29.2999C30.2524 43.4399 31.8199 43.4399 32.7724 43.4399H37.3774C38.3449 43.4399 38.8999 44.1674 38.6224 45.0599ZM50.3899 38.6549C50.3899 39.2624 49.9474 39.9899 49.4074 40.2674L47.8849 41.0474C47.3449 41.3249 46.4074 41.6249 45.8074 41.7074L44.2774 41.9249C43.6774 42.0074 43.1824 41.5799 43.1824 40.9724V38.7899C43.1824 38.1824 43.6699 37.5749 44.2624 37.4399L45.7249 37.1024C46.3174 36.9674 47.2999 36.8174 47.9074 36.7799L49.2949 36.6824C49.9024 36.6374 50.3974 37.1024 50.3974 37.7099V38.6549H50.3899Z" fill="#A989BF"/>
<path d="M30.0349 32.4525C29.6899 32.445 29.3674 32.4375 29.0449 32.4225C29.3749 32.43 29.6974 32.445 30.0349 32.4525Z" fill="#7751A1"/>
<path d="M28.6174 32.4075C28.2649 32.3925 27.9274 32.3775 27.5974 32.355C27.9274 32.3775 28.2649 32.3925 28.6174 32.4075Z" fill="#7751A1"/>
<path d="M24.8151 24.0824C24.5451 23.7449 24.3051 23.3849 24.0951 23.0024C20.7951 23.3249 18.3951 23.7974 18.2976 24.1724C18.1776 24.6449 17.3526 27.9224 16.7151 30.4874C17.7426 30.6074 18.8901 31.0049 20.6751 31.4174C20.6676 31.4174 20.6601 31.4099 20.6451 31.4099C21.9426 28.8974 23.3826 26.4224 24.8151 24.0824Z" fill="#7751A1"/>
<path d="M21.4924 31.605C21.4099 31.59 21.3274 31.575 21.2524 31.5525C21.3274 31.5675 21.4099 31.5825 21.4924 31.605Z" fill="#7751A1"/>
<path d="M29.6751 27.15C29.2701 27.06 28.8801 26.94 28.4976 26.7975C27.4326 28.5375 26.3751 30.345 25.3851 32.19C25.2801 32.1825 25.1751 32.1675 25.0701 32.16C25.8126 32.2425 26.6226 32.31 27.5076 32.3625C28.4226 30.63 29.4051 28.9125 30.3951 27.27C30.1626 27.225 29.9151 27.2025 29.6751 27.15Z" fill="#7751A1"/>
<path d="M33.14 27.1575C32.09 28.86 31.04 30.6375 30.05 32.445C30.5225 32.4525 31.01 32.46 31.5275 32.46C41.1425 32.46 44.015 30.7575 46.3325 30.4875C45.6875 27.9225 44.87 24.645 44.75 24.1725C44.6525 23.79 42.23 23.31 38.9075 22.995C37.715 25.2225 35.7575 26.595 33.14 27.1575Z" fill="#7751A1"/>
<path d="M24.485 32.085C24.3725 32.07 24.26 32.055 24.1475 32.04C24.26 32.055 24.3725 32.07 24.485 32.085Z" fill="#7751A1"/>
<path d="M23.2701 31.92C23.2176 31.9125 23.1726 31.905 23.1201 31.8975C23.1651 31.905 23.2176 31.9125 23.2701 31.92Z" fill="#7751A1"/>
<path d="M22.3551 31.77C22.3026 31.7625 22.2501 31.755 22.2051 31.74C22.2576 31.755 22.3101 31.7625 22.3551 31.77Z" fill="#7751A1"/>
<path d="M28.5051 26.7975C27.0351 26.2425 25.7676 25.2975 24.8226 24.09C23.3826 26.4225 21.9426 28.905 20.6526 31.425C20.6601 31.425 20.6676 31.4325 20.6826 31.4325C20.8701 31.4775 21.0576 31.515 21.2601 31.56C21.3426 31.575 21.4176 31.59 21.5001 31.6125C21.7326 31.6575 21.9651 31.7025 22.2201 31.755C22.2726 31.7625 22.3251 31.77 22.3701 31.785C22.6101 31.83 22.8651 31.8675 23.1276 31.9125C23.1801 31.92 23.2251 31.9275 23.2776 31.935C23.5551 31.98 23.8551 32.0175 24.1551 32.055C24.2676 32.07 24.3801 32.085 24.4926 32.1C24.6876 32.1225 24.8901 32.145 25.0926 32.1675C25.1976 32.175 25.2951 32.19 25.4076 32.1975C26.3751 30.345 27.4401 28.53 28.5051 26.7975Z" fill="#7751A1"/>
<path d="M32.72 27.2626C32.525 27.3001 32.33 27.2851 32.1425 27.3526C31.7075 27.3526 31.28 27.3526 30.845 27.3526C30.83 27.3151 30.7925 27.3226 30.7625 27.3226C30.6425 27.3151 30.53 27.2851 30.41 27.2701C29.42 28.9201 28.4375 30.6301 27.5225 32.3626C27.545 32.3626 27.575 32.3626 27.605 32.3701C27.935 32.3926 28.2725 32.4076 28.625 32.4226C28.7675 32.4301 28.9175 32.4301 29.06 32.4376C29.3825 32.4526 29.705 32.4601 30.05 32.4676H30.0575C31.0475 30.6601 32.0975 28.8751 33.1475 27.1801C32.9975 27.1876 32.8625 27.2326 32.72 27.2626Z" fill="#7751A1"/>
<g opacity="0.42">
<path d="M28.5275 26.7975C27.0575 26.2425 25.79 25.2975 24.845 24.09C23.405 26.4225 21.965 28.905 20.675 31.425C20.6825 31.425 20.69 31.4325 20.705 31.4325C20.8925 31.4775 21.08 31.515 21.2825 31.56C21.365 31.575 21.44 31.59 21.5225 31.6125C21.755 31.6575 21.9875 31.7025 22.2425 31.755C22.295 31.7625 22.3475 31.77 22.3925 31.785C22.6325 31.83 22.8876 31.8675 23.1501 31.9125C23.2026 31.92 23.2475 31.9275 23.3 31.935C23.5775 31.98 23.8775 32.0175 24.1775 32.055C24.29 32.07 24.4025 32.085 24.5151 32.1C24.7101 32.1225 24.9125 32.145 25.115 32.1675C25.22 32.175 25.3176 32.19 25.4301 32.1975C26.3976 30.345 27.4625 28.53 28.5275 26.7975Z" fill="#9E84BD"/>
</g>
<g opacity="0.42">
<path d="M32.7427 27.2624C32.5477 27.2999 32.3527 27.2849 32.1652 27.3524C31.7302 27.3524 31.3027 27.3524 30.8677 27.3524C30.8527 27.3149 30.8152 27.3224 30.7852 27.3224C30.6652 27.3149 30.5527 27.2849 30.4327 27.2699C29.4427 28.9199 28.4602 30.6299 27.5452 32.3624C27.5677 32.3624 27.5977 32.3624 27.6277 32.3699C27.9577 32.3924 28.2952 32.4074 28.6477 32.4224C28.7902 32.4299 28.9402 32.4299 29.0827 32.4374C29.4052 32.4524 29.7277 32.4599 30.0727 32.4674H30.0802C31.0702 30.6599 32.1202 28.8749 33.1702 27.1799C33.0202 27.1874 32.8852 27.2324 32.7427 27.2624Z" fill="#9E84BD"/>
</g>
<path d="M49.2875 36.6825L47.9 36.78C47.2925 36.825 46.31 36.9675 45.7175 37.1025L44.255 37.44C43.6625 37.575 43.175 38.1825 43.175 38.79V40.9725C43.175 41.58 43.67 42.0075 44.27 41.925L45.8 41.7075C46.4 41.625 47.3375 41.325 47.8775 41.0475L49.4 40.2675C49.94 39.99 50.3825 39.2625 50.3825 38.655V37.7175C50.39 37.11 49.895 36.645 49.2875 36.6825Z" fill="white"/>
<path d="M18.7776 37.44L17.3151 37.1025C16.7226 36.9675 15.7401 36.8175 15.1326 36.78L13.7451 36.6825C13.1376 36.6375 12.6426 37.1025 12.6426 37.71V38.6475C12.6426 39.255 13.0851 39.9825 13.6251 40.26L15.1476 41.04C15.6876 41.3175 16.6251 41.6175 17.2251 41.7L18.7551 41.9175C19.3551 42 19.8501 41.5725 19.8501 40.965V38.7825C19.8576 38.1825 19.3701 37.575 18.7776 37.44Z" fill="white"/>
<path d="M37.3925 43.4399H32.7875C31.835 43.4399 30.2675 43.4399 29.315 43.4399H24.71C23.7575 43.4399 23.2025 44.1674 23.48 45.0599C23.7575 45.9524 24.7625 46.7024 25.7225 46.7399L29.3225 46.8599C30.275 46.8899 31.8425 46.8899 32.795 46.8599L36.395 46.7399C37.3475 46.7099 38.36 45.9524 38.6375 45.0599C38.9 44.1674 38.345 43.4399 37.3925 43.4399Z" fill="white"/>
<g opacity="0.1">
<path d="M59.1575 33.1724C61.2275 43.5524 41.06 54.0674 24.275 52.9799C7.96996 51.8399 -0.392539 42.0899 1.11496 33.1124C2.07496 24.0974 10.745 14.5049 24.965 13.4924C39.4775 12.5249 58.445 22.7774 59.1575 33.1724Z" fill="#EB6CA9"/>
</g>
<path d="M52.7749 36.9375C52.6999 36.2025 52.4974 35.295 52.1149 34.3875C46.4074 36.825 39.2674 38.28 31.5274 38.28C23.5999 38.28 16.2949 36.765 10.5199 34.2075C9.97989 35.1675 9.70239 36.15 9.70239 36.9375V44.9325C9.70239 45.6225 10.2799 46.185 11.2474 46.6425V51.8025C11.2474 52.41 11.7499 52.9125 12.3574 52.9125H16.4449C17.0524 52.9125 17.5549 52.41 17.5549 51.8025V48.105C23.8099 48.855 31.5349 48.6975 31.5349 48.6975C31.5349 48.6975 39.2599 48.855 45.5224 48.105V51.8025C45.5224 52.41 46.0174 52.9125 46.6249 52.9125H50.7124C51.3199 52.9125 51.8224 52.41 51.8224 51.8025V46.65C52.7899 46.185 53.3674 45.63 53.3674 44.94C53.3449 41.745 53.0149 39.345 52.7749 36.9375ZM19.8649 40.9725C19.8649 41.58 19.3699 42 18.7624 41.9175L17.2324 41.7C16.6324 41.6175 15.7024 41.3175 15.1549 41.04L13.6399 40.26C13.0924 39.99 12.6574 39.2625 12.6574 38.655V37.7175C12.6574 37.11 13.1524 36.645 13.7599 36.69L15.1474 36.7875C15.7549 36.825 16.7299 36.975 17.3224 37.11L18.7849 37.44C19.3849 37.575 19.8724 38.1825 19.8724 38.79V40.9725H19.8649ZM50.3899 38.655C50.3899 39.2625 49.9474 39.99 49.4149 40.26L47.8924 41.04C47.3449 41.3175 46.4149 41.6175 45.8149 41.7L44.2849 41.9175C43.6849 42 43.1899 41.58 43.1899 40.9725V38.79C43.1899 38.1825 43.6774 37.575 44.2699 37.44L45.7324 37.11C46.3249 36.975 47.2999 36.825 47.9074 36.7875L49.2949 36.69C49.9024 36.6525 50.3974 37.1175 50.3974 37.7175V38.655H50.3899Z" fill="#7751A1"/>
<path d="M44.0825 17.355C44.495 17.2425 44.9 17.115 45.3125 17.01C46.295 16.7625 47.0675 16.2375 47.4575 15.2775C47.6825 14.7225 47.8025 14.13 47.9675 13.56C47.9825 13.5075 47.9975 13.4625 48.065 13.4025C48.185 13.815 48.32 14.2275 48.4175 14.6475C48.725 15.93 49.52 16.7175 50.8025 17.025C51.215 17.1225 51.62 17.2575 52.0175 17.43C51.5675 17.5575 51.1175 17.685 50.66 17.805C49.46 18.12 48.725 18.885 48.4325 20.0925C48.3275 20.5275 48.1925 20.9475 48.0125 21.375C47.885 20.925 47.7575 20.475 47.6375 20.025C47.3375 18.885 46.625 18.1425 45.485 17.82C45.02 17.6925 44.555 17.565 44.09 17.4375C44.0825 17.4075 44.0825 17.385 44.0825 17.355Z" fill="#D85056"/>
<path d="M16.2576 15.42C16.4901 15.3525 16.7301 15.285 16.9626 15.225C17.5326 15.0825 17.9751 14.7825 18.1926 14.2275C18.3201 13.9125 18.3876 13.5675 18.4851 13.2375C18.4926 13.2075 18.5001 13.1775 18.5451 13.1475C18.6126 13.3875 18.6951 13.62 18.7476 13.86C18.9276 14.595 19.3851 15.045 20.1201 15.225C20.3601 15.285 20.5926 15.36 20.8176 15.4575C20.5551 15.5325 20.3001 15.6075 20.0376 15.675C19.3476 15.855 18.9276 16.2975 18.7551 16.9875C18.6951 17.235 18.6126 17.4825 18.5151 17.7225C18.4401 17.4675 18.3651 17.205 18.2976 16.95C18.1251 16.29 17.7126 15.87 17.0601 15.6825C16.7901 15.6075 16.5276 15.5325 16.2576 15.465C16.2576 15.45 16.2576 15.435 16.2576 15.42Z" fill="#D85056"/>
<path d="M41.3525 23.535C41.495 23.4975 41.6375 23.4525 41.78 23.415C42.125 23.3325 42.395 23.145 42.53 22.8075C42.605 22.6125 42.65 22.41 42.71 22.2075C42.7175 22.1925 42.7175 22.17 42.7475 22.155C42.7925 22.2975 42.8375 22.4475 42.875 22.59C42.98 23.04 43.2575 23.31 43.7075 23.4225C43.85 23.46 43.9925 23.505 44.135 23.565C43.9775 23.61 43.82 23.655 43.6625 23.7C43.2425 23.8125 42.9875 24.075 42.8825 24.5025C42.845 24.6525 42.8 24.8025 42.7325 24.9525C42.6875 24.795 42.6425 24.6375 42.5975 24.48C42.4925 24.0825 42.245 23.82 41.8475 23.7075C41.6825 23.6625 41.525 23.6175 41.36 23.5725C41.36 23.5575 41.3525 23.5425 41.3525 23.535Z" fill="white"/>
<path d="M38.3525 6.54753C38.8625 6.40503 39.3725 6.24753 39.89 6.12003C41.12 5.81253 42.0875 5.15253 42.575 3.95253C42.8525 3.26253 43.0025 2.52003 43.2125 1.80003C43.2275 1.74003 43.25 1.67253 43.34 1.59753C43.49 2.11503 43.6625 2.63253 43.7825 3.15753C44.165 4.76253 45.1625 5.74503 46.7675 6.12753C47.285 6.25503 47.7875 6.42003 48.29 6.63003C47.7275 6.78753 47.1575 6.95253 46.595 7.10253C45.0875 7.50003 44.1725 8.46004 43.805 9.96004C43.67 10.5 43.505 11.0325 43.2725 11.565C43.115 11.0025 42.95 10.44 42.8 9.87753C42.425 8.44503 41.5325 7.52253 40.1075 7.12503C39.53 6.96003 38.945 6.80253 38.3675 6.64503C38.36 6.61503 38.3525 6.58503 38.3525 6.54753Z" fill="#FFCB66"/>
<path d="M38.6224 45.0599C38.3449 45.9449 37.3324 46.7024 36.3874 46.7324L32.7874 46.8524C31.8349 46.8824 30.2674 46.8824 29.3149 46.8524L25.7149 46.7324C24.7624 46.7024 23.7499 45.9449 23.4724 45.0599C23.2024 44.1674 23.7499 43.4399 24.7099 43.4399H37.3924C38.3449 43.4399 38.8999 44.1674 38.6224 45.0599Z" fill="#A989BF"/>
<path d="M25.2125 23.7825C26.105 24.9225 27.2975 25.8075 28.685 26.3325C29.045 26.4675 29.4125 26.58 29.795 26.6625C30.02 26.715 30.2525 26.7375 30.4775 26.7675C30.59 26.7825 30.695 26.8125 30.8075 26.82C30.8375 26.82 30.875 26.8125 30.89 26.85C31.295 26.85 31.7 26.85 32.1125 26.85C32.2925 26.79 32.48 26.7975 32.66 26.7675C32.795 26.745 32.9225 26.7 33.0575 26.6775C35.525 26.145 37.3625 24.8475 38.48 22.7625C38.7275 22.2975 38.9525 21.81 39.125 21.27C39.1475 21.2025 39.155 21.1275 39.1775 21.06C40.025 18.21 39.3725 15.6 37.34 13.3725C36.0725 11.97 34.4525 11.175 32.585 10.9125C29.1275 10.425 25.67 12.33 24.2375 15.5175C23.8625 16.3575 23.6225 17.2275 23.54 18.1425C23.54 18.1725 23.5475 18.21 23.51 18.225C23.51 18.645 23.51 19.0575 23.51 19.4775C23.5775 19.65 23.57 19.83 23.5925 20.01C23.645 20.3775 23.7275 20.73 23.825 21.075C23.9975 21.675 24.2375 22.2375 24.5375 22.77C24.7325 23.1225 24.9575 23.46 25.2125 23.7825Z" fill="#FFCB66"/>
<path d="M28.0024 18.4051C28.0549 18.4126 28.0849 18.4576 28.1149 18.4876C28.7149 19.0651 29.3224 19.6426 29.9149 20.2276C30.0349 20.3476 30.1024 20.3476 30.2224 20.2276C31.1824 19.2901 32.1499 18.3601 33.1174 17.4301C33.6499 16.9201 34.1824 16.4176 34.7074 15.9001C34.8199 15.7876 34.8874 15.8026 34.9924 15.9076C35.3674 16.3126 35.7499 16.7176 36.1399 17.1151C36.2149 17.1901 36.2224 17.2351 36.1399 17.3101C35.3974 18.0151 34.6549 18.7276 33.9124 19.4401C33.5524 19.7851 33.1999 20.1301 32.8399 20.4751C31.9624 21.3151 31.0924 22.1626 30.2224 23.0101C30.1024 23.1301 30.0349 23.1076 29.9224 23.0026C29.1724 22.2751 28.4299 21.5401 27.6649 20.8276C27.3499 20.5276 27.0424 20.2126 26.7199 19.9126C26.6374 19.8376 26.6149 19.7776 26.7049 19.6876C27.0949 19.2901 27.4774 18.8926 27.8674 18.4951C27.9199 18.4576 27.9499 18.4126 28.0024 18.4051Z" fill="white"/>
</g>
<defs>
<clipPath id="clip0_1039_2683">
<rect width="60" height="60" fill="white" transform="translate(0.5)"/>
</clipPath>
</defs>
</svg>
