<svg width="61" height="60" viewBox="0 0 61 60" fill="none" xmlns="http://www.w3.org/2000/svg">
<g opacity="0.1">
<path d="M59.4576 30.975C61.5201 42.1275 41.4426 53.4225 24.7401 52.2525C8.51007 51.03 0.185071 40.56 1.68507 30.9075C2.63757 21.225 11.2701 10.92 25.4226 9.83246C39.8676 8.78996 58.7526 19.815 59.4576 30.975Z" fill="#EB6CA9"/>
</g>
<path d="M24.8751 27.0225C24.8751 27.0225 15.8451 29.3475 11.2176 35.28C5.66008 42.3975 3.26758 53.775 3.26758 53.775H56.6676C56.6676 53.775 53.9976 41.5725 49.9626 36.15C44.0376 28.1775 34.6626 27.795 34.6626 27.795L24.8751 27.0225Z" fill="#A989BF"/>
<path d="M24.8751 27.0225C24.8751 27.0225 15.5226 29.4 10.5576 35.1C6.29759 39.99 5.09009 44.52 5.09009 44.52L12.9576 47.7C12.9576 47.7 18.1926 32.3625 24.8751 27.0225Z" fill="#7751A1"/>
<path d="M5.08998 44.52C5.08998 44.52 3.14748 48.51 2.66748 53.7675H10.9475L12.95 47.7L5.08998 44.52Z" fill="#F6998F"/>
<path d="M56.4874 53.91L18.0874 29.535L16.6024 30.0975L15.2524 30.7725L51.7099 53.91H56.4874Z" fill="white"/>
<path d="M34.6626 27.7275C34.6626 27.7275 43.6926 28.23 49.8876 34.8975C54.0201 39.345 55.4301 43.1025 55.4301 43.1025L47.4126 47.3175C47.4126 47.31 41.9076 32.8275 34.6626 27.7275Z" fill="#7751A1"/>
<path d="M55.4301 43.1025C55.4301 43.1025 58.1676 49.395 58.6476 53.775H50.3676L47.4126 47.3175L55.4301 43.1025Z" fill="#F6998F"/>
<path d="M26.3373 16.665L23.5398 27.6075C23.5398 27.6075 25.1373 31.4775 29.7948 31.3125C34.4523 31.1475 35.8998 28.3125 35.8998 28.3125L34.0098 16.68L26.3373 16.665Z" fill="url(#paint0_linear_1039_2834)"/>
<path d="M24.7549 12.5475C24.7549 12.5475 20.1874 11.415 20.1724 14.4975C20.1574 17.58 24.8374 17.385 24.8374 17.385L24.7549 12.5475Z" fill="#F58C81"/>
<path d="M37.0849 12.5775C37.0849 12.5775 40.6324 12.045 40.0549 15.0675C39.5299 17.805 36.4849 17.3625 36.4849 17.3625L37.0849 12.5775Z" fill="#F58C81"/>
<path d="M38.1799 16.0876C38.2099 16.0876 38.2399 16.0801 38.2624 16.0651C38.2999 16.0351 39.2449 15.3976 39.3199 14.5426C39.3424 14.2801 39.2749 14.0626 39.1249 13.8976C38.8399 13.5901 38.3524 13.5901 38.3299 13.5901C38.2474 13.5901 38.1799 13.6576 38.1799 13.7401C38.1799 13.8226 38.2474 13.8901 38.3299 13.8901C38.3299 13.8901 38.7049 13.8901 38.8999 14.1001C38.9899 14.1976 39.0274 14.3326 39.0124 14.5051C38.9524 15.2176 38.0974 15.7951 38.0899 15.8026C38.0224 15.8476 37.9999 15.9451 38.0449 16.0126C38.0824 16.0651 38.1349 16.0876 38.1799 16.0876Z" fill="#E56760"/>
<path d="M30.5449 4.85256C36.2449 4.81506 38.8474 7.50756 38.5324 14.7376C38.2324 21.6451 36.0424 25.1701 31.4674 24.9976C26.9374 24.8251 24.2749 22.6651 23.1574 15.4876C21.9424 7.73256 25.0024 4.89006 30.5449 4.85256Z" fill="url(#paint1_linear_1039_2834)"/>
<path d="M28.3848 13.0425C27.5973 13.3575 28.1748 14.19 28.7673 14.0175C29.3898 13.845 29.1723 12.7275 28.3848 13.0425Z" fill="#2B1411"/>
<path d="M34.5422 13.0125C33.7547 13.3275 34.2722 14.145 34.9247 13.9875C35.5472 13.8375 35.3222 12.6975 34.5422 13.0125Z" fill="#2B1411"/>
<path d="M32.1424 17.415C32.5699 17.415 32.9225 17.325 33.155 17.145C33.3725 16.98 33.4625 16.74 33.425 16.4775C33.305 15.6975 32.5475 12.345 32.51 12.2025C32.4875 12.12 32.405 12.0675 32.3225 12.0825C32.24 12.105 32.1875 12.1875 32.2025 12.27C32.21 12.3075 32.99 15.75 33.11 16.5225C33.1325 16.68 33.0874 16.8 32.9599 16.8975C32.5999 17.175 31.6325 17.2275 30.3575 16.6875C30.275 16.65 30.185 16.6875 30.155 16.77C30.1175 16.8525 30.155 16.9425 30.2375 16.9725C30.92 17.265 31.5949 17.415 32.1424 17.415Z" fill="#EF8078"/>
<path d="M26.4873 12.5926C26.5248 12.5926 26.5623 12.5776 26.5998 12.5551C28.0998 11.4526 29.9598 12.0076 29.9823 12.0151C30.0798 12.0451 30.1848 11.9926 30.2148 11.8951C30.2448 11.7976 30.1923 11.6926 30.0948 11.6626C30.0123 11.6401 28.0398 11.0401 26.3823 12.2551C26.2998 12.3151 26.2848 12.4351 26.3448 12.5176C26.3748 12.5626 26.4348 12.5926 26.4873 12.5926Z" fill="#81422E"/>
<path d="M36.8374 12.3075C36.8974 12.3075 36.9499 12.285 36.9874 12.2325C37.0474 12.15 37.0324 12.0375 36.9499 11.97C36.8974 11.925 35.5699 10.9575 33.1624 11.67C33.0649 11.7 33.0049 11.805 33.0349 11.9025C33.0649 12 33.1699 12.06 33.2674 12.03C35.5024 11.37 36.7174 12.255 36.7249 12.27C36.7549 12.3 36.7999 12.3075 36.8374 12.3075Z" fill="#81422E"/>
<path d="M22.3399 16.1325C22.3999 16.1325 22.4599 16.095 22.4824 16.035C22.5199 15.9525 22.4824 15.8625 22.3999 15.8325C22.3924 15.825 21.3874 15.3825 21.3049 14.535C21.2899 14.37 21.3274 14.235 21.4174 14.1225C21.6274 13.875 22.0624 13.845 22.0624 13.845C22.1524 13.8375 22.2124 13.7625 22.2124 13.68C22.2049 13.59 22.1299 13.5225 22.0474 13.53C22.0249 13.53 21.4774 13.5675 21.1774 13.9125C21.0274 14.085 20.9674 14.3025 20.9899 14.5575C21.0949 15.5925 22.2274 16.095 22.2724 16.1175C22.3024 16.1325 22.3174 16.1325 22.3399 16.1325Z" fill="#E56760"/>
<path d="M23.6523 14.8575C23.1423 15.18 22.8498 12.8775 22.4748 12.36C21.7698 12.45 21.5673 12.51 20.9298 12.885C20.9298 12.885 20.0823 9.09754 21.9348 5.62504C23.1423 3.36004 25.8498 2.10754 28.4448 1.77754C35.2398 0.915039 37.9998 4.18504 38.8473 7.11754C39.5073 9.39754 39.2073 13.665 38.5248 14.7375C38.5248 12.33 38.0898 10.47 37.3173 9.11254C37.1898 8.88754 36.9048 8.79754 36.6648 8.90254C35.7498 9.32254 33.3048 10.2225 29.7648 9.91504C27.6798 9.73504 26.3223 9.30004 25.5948 9.00004C25.2723 8.86504 24.9198 9.08254 24.8898 9.42754C24.8298 10.0875 24.7098 11.0925 24.4923 12.0525C24.1773 13.4775 24.0198 14.625 23.6523 14.8575Z" fill="#343433"/>
<path d="M31.2048 20.82C32.3598 20.82 33.0048 20.055 33.0348 20.0175C33.0873 19.9575 33.0798 19.86 33.0123 19.815C32.9523 19.7625 32.8548 19.77 32.8098 19.8375C32.7873 19.8675 32.1498 20.61 31.0248 20.5275C29.5098 20.415 29.1048 19.44 29.1048 19.425C29.0748 19.35 28.9923 19.3125 28.9173 19.3425C28.8423 19.3725 28.8048 19.455 28.8348 19.53C28.8498 19.575 29.3148 20.685 31.0023 20.8125C31.0773 20.8125 31.1373 20.82 31.2048 20.82Z" fill="#E56760"/>
<path d="M40.805 32.9324L38.6675 40.9124L40.9475 39.7349L42.35 41.8949L43.685 36.9224L45.02 41.8949L46.4075 39.7349L48.7025 40.9049L46.565 32.9249L43.685 33.6974L40.805 32.9324Z" fill="#FFCB66"/>
<path d="M40.8051 32.9325L40.0776 35.6625C40.1526 35.7675 40.2426 35.8575 40.3551 35.9175C40.8651 36.21 41.5476 35.85 42.1176 36.0075C42.6876 36.1575 43.1001 36.8175 43.6851 36.8175C44.2776 36.8175 44.6901 36.165 45.2526 36.0075C45.8226 35.8575 46.5051 36.2175 47.0151 35.9175C47.1276 35.85 47.2176 35.76 47.2926 35.6625L46.5651 32.9325L43.6851 33.705L40.8051 32.9325Z" fill="#D1A24B"/>
<path d="M49.4676 32.6775C49.1751 33.1875 48.4026 33.2175 47.9826 33.6375C47.5626 34.0575 47.5401 34.83 47.0226 35.1225C46.5126 35.415 45.8301 35.055 45.2601 35.2125C44.6901 35.3625 44.2776 36.0225 43.6926 36.0225C43.1001 36.0225 42.6876 35.37 42.1251 35.2125C41.5551 35.0625 40.8726 35.4225 40.3626 35.1225C39.8526 34.83 39.8226 34.05 39.4026 33.6375C38.9901 33.2175 38.2101 33.1875 37.9176 32.6775C37.6251 32.1675 37.9851 31.4775 37.8276 30.9075C37.6776 30.3375 37.0176 29.925 37.0176 29.3325C37.0176 28.74 37.6701 28.3275 37.8276 27.7575C37.9776 27.1875 37.6176 26.4975 37.9176 25.9875C38.2101 25.4775 38.9826 25.4475 39.4026 25.0275C39.8226 24.6075 39.8451 23.835 40.3626 23.5425C40.8726 23.25 41.5551 23.61 42.1251 23.4525C42.6951 23.3025 43.1076 22.6425 43.6926 22.6425C44.2851 22.6425 44.6976 23.295 45.2601 23.4525C45.8301 23.6025 46.5126 23.2425 47.0226 23.5425C47.5326 23.835 47.5626 24.615 47.9826 25.0275C48.3951 25.4475 49.1751 25.4775 49.4676 25.9875C49.7601 26.4975 49.4001 27.1875 49.5576 27.7575C49.7076 28.3275 50.3676 28.74 50.3676 29.3325C50.3676 29.925 49.7151 30.3375 49.5576 30.9075C49.4001 31.4775 49.7601 32.1675 49.4676 32.6775Z" fill="#FFCB66"/>
<path d="M48.9201 29.3325C48.9201 30.72 48.3726 32.0475 47.3901 33.03C46.4076 34.0125 45.0801 34.56 43.6926 34.56C42.3051 34.56 40.9776 34.0125 39.9951 33.03C39.0126 32.0475 38.4651 30.72 38.4651 29.3325C38.4651 27.945 39.0126 26.6175 39.9951 25.635C40.9776 24.6525 42.3051 24.105 43.6926 24.105C45.0801 24.105 46.4076 24.6525 47.3901 25.635C48.3651 26.6175 48.9201 27.945 48.9201 29.3325Z" fill="#D85056"/>
<path d="M48.9201 29.3325C48.9201 30.72 48.3726 32.0475 47.3901 33.03C46.4076 34.0125 45.0801 34.56 43.6926 34.56C42.3051 34.56 40.9776 34.0125 39.9951 33.03C39.0126 32.0475 38.4651 30.72 38.4651 29.3325C38.4651 27.945 39.0126 26.6175 39.9951 25.635C40.9776 24.6525 42.3051 24.105 43.6926 24.105C45.0801 24.105 46.4076 24.6525 47.3901 25.635C48.3651 26.6175 48.9201 27.945 48.9201 29.3325Z" stroke="white" stroke-width="0.4933" stroke-linecap="round" stroke-linejoin="round"/>
<path fill-rule="evenodd" clip-rule="evenodd" d="M22.0924 53.7825C21.8824 53.265 21.6949 52.725 21.5824 52.1625C21.3199 50.85 21.8224 50.985 23.2399 51.495C23.2774 51.5025 23.3149 51.525 23.3524 51.54C24.5299 51.9825 25.5874 52.74 26.4049 53.7375C26.4199 53.7525 26.4274 53.7675 26.4424 53.7825H34.9999C35.0149 53.7675 35.0224 53.7525 35.0374 53.7375C35.8549 52.74 36.9049 51.9825 38.0824 51.54C38.1199 51.525 38.1574 51.51 38.1949 51.495C39.6124 50.985 40.1224 50.8575 39.8524 52.1625C39.7399 52.725 39.5599 53.2575 39.3424 53.7825H42.3349C42.6649 52.6725 42.8524 51.5025 42.8524 50.2875C42.8524 48.1275 42.2899 46.095 41.2999 44.34C40.8499 43.5075 40.3024 42.7575 39.6874 42.105C37.4674 39.6675 34.2649 38.13 30.7099 38.13C27.1549 38.13 23.9524 39.66 21.7324 42.105C21.1174 42.765 20.5699 43.5075 20.1199 44.34C19.1299 46.095 18.5674 48.1275 18.5674 50.2875C18.5674 51.5025 18.7549 52.6725 19.0849 53.7825H22.0924ZM30.7174 52.305C29.6074 52.305 28.7074 51.3975 28.7074 50.2875C28.7074 49.17 29.6074 48.27 30.7174 48.27C31.8274 48.27 32.7349 49.17 32.7349 50.2875C32.7349 51.3975 31.8349 52.305 30.7174 52.305ZM22.6249 45.6375C24.2374 42.8325 27.2599 40.9425 30.7174 40.9425C34.1824 40.9425 37.2049 42.8325 38.8099 45.6375C39.8149 47.3925 38.4949 46.995 37.3699 46.635C32.8099 45.1725 28.6249 45.1725 24.0649 46.635C22.9399 47.0025 21.6274 47.3925 22.6249 45.6375Z" fill="#343433"/>
<path d="M58.6476 53.7675C58.6476 53.7675 57.1926 52.0425 52.1676 47.9775C48.2226 44.7825 44.2401 40.5825 41.9376 41.46C40.4901 42.015 38.4351 44.1 37.7451 45.69C36.8226 47.82 38.8476 49.5675 41.1126 51.3675C43.2201 53.04 43.5726 50.73 44.9901 50.625C46.4076 50.5125 49.2426 53.7675 49.2426 53.7675H58.6476Z" fill="#F8A89B"/>
<path d="M2.67505 53.7675C2.67505 53.7675 4.13005 52.0425 9.15505 47.9775C13.1 44.7825 17.0825 40.5825 19.385 41.46C20.8326 42.015 22.8876 44.1 23.5775 45.69C24.5 47.82 22.475 49.5675 20.21 51.3675C18.1025 53.04 17.75 50.73 16.3326 50.625C14.915 50.5125 12.08 53.7675 12.08 53.7675H2.67505Z" fill="#F8A89B"/>
<path d="M43.7525 26.5275L44.405 28.0125C44.42 28.0425 44.45 28.0575 44.48 28.0575L46.0925 27.885C46.1525 27.8775 46.19 27.945 46.16 27.9975L45.2 29.3025C45.185 29.325 45.185 29.3625 45.2 29.385L46.16 30.69C46.1975 30.7425 46.16 30.81 46.0925 30.8025L44.48 30.63C44.45 30.63 44.42 30.645 44.405 30.675L43.7525 32.16C43.73 32.22 43.6475 32.22 43.625 32.16L42.9725 30.675C42.9575 30.645 42.9275 30.63 42.8975 30.63L41.285 30.8025C41.225 30.81 41.1875 30.7425 41.2175 30.69L42.1775 29.385C42.1925 29.3625 42.1925 29.325 42.1775 29.3025L41.2175 27.9975C41.18 27.945 41.2175 27.8775 41.285 27.885L42.8975 28.0575C42.9275 28.0575 42.9575 28.0425 42.9725 28.0125L43.625 26.5275C43.6475 26.4675 43.73 26.4675 43.7525 26.5275Z" fill="white"/>
<defs>
<linearGradient id="paint0_linear_1039_2834" x1="30.2335" y1="27.8507" x2="28.2548" y2="20.1176" gradientUnits="userSpaceOnUse">
<stop stop-color="#F7A195"/>
<stop offset="0.8108" stop-color="#ED7E74"/>
<stop offset="1" stop-color="#EB756D"/>
</linearGradient>
<linearGradient id="paint1_linear_1039_2834" x1="32.4134" y1="24.7868" x2="29.6025" y2="5.13218" gradientUnits="userSpaceOnUse">
<stop stop-color="#F8AC9C"/>
<stop offset="0.0162" stop-color="#F8AC9B"/>
<stop offset="0.491" stop-color="#F7A195"/>
<stop offset="1" stop-color="#F7A195"/>
</linearGradient>
</defs>
</svg>
