<svg width="61" height="60" viewBox="0 0 61 60" fill="none" xmlns="http://www.w3.org/2000/svg">
<g opacity="0.1">
<path d="M2.24001 34.65C3.00501 26.1 21.71 15.54 35.69 15.3225C49.4975 15.2325 57.4925 24.6525 58.385 34.71C59.885 44.7525 52.1825 54.3675 36.3575 54.2625C20.1875 54.015 0.320007 43.1625 2.24001 34.65Z" fill="#EB6CA9"/>
</g>
<path d="M23.2026 4.56755C24.0051 4.72505 24.7776 4.96505 25.5426 5.25005C36.0501 9.14255 40.2201 21.6376 34.1901 31.0651C29.8476 37.8376 25.5051 44.6101 21.1551 51.3826C20.0301 53.1301 18.8901 53.1226 17.7651 51.3751C13.4451 44.6251 9.11761 37.8901 4.81261 31.1401C-2.16239 20.2126 4.27261 6.17255 17.1126 4.29005C17.2926 4.26755 20.4276 4.01255 23.2026 4.56755ZM27.4551 21.7801C27.6426 17.5351 24.0801 13.8151 19.6326 13.6201C15.3876 13.4251 11.6676 16.9951 11.4651 21.4426C11.2776 25.6876 14.8326 29.4001 19.2876 29.6101C23.5176 29.8126 27.2601 26.2201 27.4551 21.7801Z" fill="#7751A1"/>
<path d="M26.7502 12.8325C27.3502 12.2625 27.9052 11.7375 28.5727 11.1C29.0527 11.655 29.4877 12.165 29.9602 12.7125C29.4352 13.275 28.9102 13.8375 28.3927 14.3925C33.3802 21.2475 30.7702 28.5075 26.4652 31.7925C21.4327 35.64 14.4802 35.1525 10.1377 30.6C5.87015 26.13 5.65265 19.05 9.66515 14.3475C13.6852 9.63754 20.9452 8.39254 26.7502 12.8325Z" fill="#FFCB66"/>
<path d="M14.9302 8.88754C14.9302 8.22754 14.9302 7.65754 14.9302 6.98254C17.5927 6.98254 20.1952 6.98254 22.9177 6.98254C22.9177 7.55254 22.9177 8.16004 22.9177 8.88754C20.3452 8.88754 17.6977 8.88754 14.9302 8.88754Z" fill="#FFCB66"/>
<path d="M17.1501 11.505C17.1501 10.5225 17.1501 9.67499 17.1501 8.67749C18.3351 8.67749 19.4901 8.67749 20.7051 8.67749C20.7051 9.52499 20.7051 10.425 20.7051 11.505C19.5576 11.505 18.3801 11.505 17.1501 11.505Z" fill="#FFCB66"/>
<path d="M28.0402 22.4176C27.9727 27.4651 23.8627 31.3876 18.6952 31.3276C13.7527 31.2676 9.78518 27.1051 9.86018 22.0426C9.92768 17.4001 13.4827 13.6351 18.0277 13.1851C18.3727 13.1476 18.7252 13.1326 19.0777 13.1401C19.3402 13.1401 19.6102 13.1551 19.8652 13.1851C24.5527 13.6276 28.1002 17.5501 28.0402 22.4176Z" fill="white"/>
<path d="M14.5103 20.805C14.5853 20.82 14.6228 20.8725 14.6753 20.925C15.5453 21.7575 16.4153 22.59 17.2778 23.4375C17.4503 23.61 17.5478 23.61 17.7203 23.4375C19.1078 22.0875 20.5103 20.7375 21.9053 19.395C22.6703 18.66 23.4428 17.9325 24.2003 17.1825C24.3653 17.025 24.4628 17.04 24.6128 17.1975C25.1603 17.7825 25.7078 18.3675 26.2703 18.9375C26.3753 19.05 26.3828 19.1175 26.2703 19.2225C25.1978 20.2425 24.1253 21.2775 23.0528 22.2975C22.5353 22.7925 22.0253 23.3025 21.5078 23.79C20.2403 24.9975 18.9803 26.2275 17.7278 27.45C17.5553 27.615 17.4578 27.5925 17.3003 27.4425C16.2203 26.385 15.1403 25.335 14.0453 24.2925C13.5878 23.8575 13.1378 23.4075 12.6803 22.9725C12.5603 22.86 12.5303 22.7775 12.6578 22.6425C13.2203 22.0725 13.7753 21.495 14.3303 20.9175C14.3903 20.88 14.4278 20.8125 14.5103 20.805Z" fill="#7751A1"/>
<path d="M52.7976 42.3375C53.0151 42.225 53.2026 42.0075 53.3376 41.76C53.2026 42.0075 53.0151 42.225 52.7976 42.3375Z" fill="#A989BF"/>
<path d="M54.5076 46.9051C55.1976 46.5751 55.6101 46.1701 55.6101 45.6826C55.6101 44.1226 55.4976 42.8326 55.3701 41.6251C55.4976 42.8326 55.6101 44.1301 55.6101 45.6826C55.6101 46.1701 55.1976 46.5751 54.5076 46.9051Z" fill="#A989BF"/>
<path d="M51.7177 39.8475C51.5152 39.8625 51.2527 39.8925 50.9902 39.93C51.2527 39.8925 51.5152 39.8625 51.7177 39.8475Z" fill="#A989BF"/>
<path d="M53.3825 40.14C53.2475 39.9075 53 39.7575 52.7075 39.7725L51.7175 39.84L52.7075 39.7725C53 39.7575 53.2475 39.915 53.3825 40.14Z" fill="#A989BF"/>
<path d="M50.0076 50.595V47.9475V50.595C50.0076 50.8425 50.1276 51.06 50.3151 51.2025C50.1276 51.06 50.0076 50.8425 50.0076 50.595Z" fill="#A989BF"/>
<path d="M54.0203 51.3226C54.2378 51.2326 54.3953 51.0376 54.4628 50.8051C54.3953 51.0376 54.2378 51.2326 54.0203 51.3226Z" fill="#A989BF"/>
<path d="M25.2351 46.7476C25.3251 46.8001 25.4076 46.8526 25.5051 46.8976C25.4076 46.8526 25.3251 46.8001 25.2351 46.7476Z" fill="#A989BF"/>
<path d="M54.8076 38.3551C54.8301 38.4151 54.8526 38.4676 54.8751 38.5276C54.8526 38.4676 54.8301 38.4151 54.8076 38.3551Z" fill="#A989BF"/>
<path d="M55.0701 39.2101C55.0776 39.2401 55.0851 39.2701 55.0926 39.3001C55.0776 39.2701 55.0776 39.2401 55.0701 39.2101Z" fill="#A989BF"/>
<path d="M38.0077 48.3825C36.9127 48.375 35.4652 48.345 33.9277 48.27C35.4652 48.345 36.9127 48.375 38.0077 48.3825Z" fill="#A989BF"/>
<path d="M57.5227 32.4301H54.6652C54.1702 32.4301 53.7652 32.8351 53.7652 33.3301V33.9001C53.7652 34.6951 53.1727 35.1076 52.5727 35.2951C51.8677 33.4351 50.7277 30.4351 50.6302 30.1876C50.4127 29.6551 48.4102 28.4401 40.0177 28.4401C38.6752 28.4401 37.5052 28.4776 36.4702 28.5301C36.2902 28.9876 36.1027 29.4451 35.8852 29.8951C36.0127 29.8876 36.1477 29.8801 36.2752 29.8726C36.4027 29.8651 36.5227 29.8576 36.6502 29.8501C36.7627 29.8426 36.8752 29.8351 36.9877 29.8351C37.1752 29.8276 37.3702 29.8126 37.5577 29.8051C37.7002 29.7976 37.8502 29.7901 37.9927 29.7901C38.1502 29.7826 38.3077 29.7751 38.4727 29.7751C38.6302 29.7676 38.7877 29.7676 38.9527 29.7601C39.1327 29.7601 39.3127 29.7526 39.4927 29.7526C39.5752 29.7526 39.6652 29.7526 39.7477 29.7526C39.8377 29.7526 39.9277 29.7526 40.0252 29.7526C41.0827 29.7526 42.1327 29.7901 43.1377 29.8426C43.1602 29.8426 43.1752 29.8426 43.1977 29.8426C46.5952 30.0376 49.3852 30.4951 49.4752 30.8476C49.5652 31.1851 50.1502 33.5251 50.6077 35.3626C48.9502 35.5576 46.8952 36.7726 40.0252 36.7726C39.6577 36.7726 39.3127 36.7651 38.9677 36.7576H38.9602C38.7127 36.7501 38.4877 36.7426 38.2552 36.7351C38.1502 36.7351 38.0452 36.7276 37.9402 36.7276C37.6927 36.7201 37.4452 36.7051 37.2127 36.6901C37.1977 36.6901 37.1752 36.6901 37.1527 36.6901C36.2227 36.6376 35.4127 36.5551 34.7002 36.4651C34.6102 36.4501 34.5352 36.4426 34.4452 36.4276C34.2427 36.3976 34.0477 36.3676 33.8602 36.3376C33.7627 36.3226 33.6727 36.3076 33.5827 36.2926C33.4027 36.2626 33.2302 36.2326 33.0652 36.1951C32.9977 36.1801 32.9302 36.1726 32.8702 36.1576C32.6152 36.1051 32.3677 36.0526 32.1427 36.0001C31.3627 37.2226 30.5752 38.4451 29.7952 39.6601C32.9002 40.4701 36.3652 40.9201 40.0102 40.9201C45.5377 40.9201 50.6377 39.8851 54.7177 38.1451C54.5377 37.7026 54.3052 37.2676 53.9977 36.8701C53.6377 36.1276 54.5227 35.6401 55.1827 35.5201L57.5377 35.0851C58.0252 34.9951 58.4227 34.5151 58.4227 34.0201V33.3301C58.4227 32.8426 58.0177 32.4301 57.5227 32.4301Z" fill="#A989BF"/>
<path d="M31.6701 41.2875V42.8475C31.6701 43.08 31.5651 43.2675 31.4076 43.395C31.5651 43.275 31.6776 43.0875 31.6776 42.855L31.6701 41.2875C31.6701 40.9875 31.5051 40.7025 31.2651 40.515C31.5051 40.7025 31.6701 40.9875 31.6701 41.2875Z" fill="#A989BF"/>
<path d="M45.8827 48.2776C44.4127 48.3451 43.0402 48.3751 41.9902 48.3826C43.0402 48.3751 44.4127 48.3451 45.8827 48.2776Z" fill="#A989BF"/>
<path d="M34.4375 36.4201C34.235 36.3901 34.04 36.3601 33.8525 36.3301C34.04 36.3601 34.235 36.3901 34.4375 36.4201Z" fill="#7751A1"/>
<path d="M40.0101 36.7651C46.8801 36.7651 48.9351 35.5501 50.5926 35.3551C50.1351 33.5176 49.5501 31.1776 49.4601 30.8401C49.3701 30.4876 46.5801 30.0301 43.1826 29.8351C41.8176 31.8751 40.3026 34.2751 38.9526 36.7501C39.2976 36.7576 39.6426 36.7651 40.0101 36.7651Z" fill="#7751A1"/>
<path opacity="0.42" d="M32.1426 35.9925C32.3676 36.045 32.6076 36.0975 32.8701 36.15C32.6451 36.105 32.4351 36.06 32.2401 36.015C32.4051 35.6925 32.5851 35.3625 32.7576 35.04" fill="#A989BF"/>
<path d="M34.6926 36.4576C35.4051 36.5551 36.2226 36.6301 37.1451 36.6826C38.4426 34.2301 39.9051 31.8451 41.2776 29.7601C41.9001 29.7751 42.5226 29.7976 43.1226 29.8351C42.1176 29.7751 41.0676 29.7451 40.0101 29.7451C39.9201 29.7451 39.8301 29.7451 39.7326 29.7451C38.3826 31.7851 36.9126 34.1476 35.6226 36.5626C35.2926 36.5326 34.9851 36.4951 34.6926 36.4576Z" fill="#7751A1"/>
<path d="M37.9253 36.7201C37.6778 36.7126 37.4303 36.6976 37.1978 36.6826C37.4378 36.6976 37.6778 36.7126 37.9253 36.7201Z" fill="#7751A1"/>
<path d="M38.9377 29.7601C39.1177 29.7601 39.2977 29.7526 39.4777 29.7526C39.2977 29.7526 39.1177 29.7526 38.9377 29.7601Z" fill="#7751A1"/>
<path d="M38.9452 36.75C38.6977 36.7425 38.4727 36.735 38.2402 36.7275C38.4727 36.7425 38.7052 36.75 38.9452 36.75Z" fill="#7751A1"/>
<path d="M33.5827 36.2851C33.4027 36.2551 33.2302 36.2251 33.0652 36.1876C33.2302 36.2251 33.4027 36.2551 33.5827 36.2851Z" fill="#7751A1"/>
<path d="M36.2676 29.8726C36.3951 29.8651 36.5151 29.8576 36.6426 29.8501C36.5076 29.8576 36.3876 29.8651 36.2676 29.8726Z" fill="#7751A1"/>
<path d="M36.9727 29.8276C37.1602 29.8201 37.3552 29.8051 37.5427 29.7976C37.3552 29.8126 37.1677 29.8201 36.9727 29.8276Z" fill="#7751A1"/>
<path d="M37.9851 29.7826C38.1426 29.7751 38.3001 29.7676 38.4651 29.7676C38.3001 29.7751 38.1426 29.7826 37.9851 29.7826Z" fill="#7751A1"/>
<g opacity="0.42">
<path d="M38.4578 29.7676C38.6153 29.7601 38.7728 29.7601 38.9378 29.7526C38.7803 29.7601 38.6153 29.7676 38.4578 29.7676Z" fill="#A989BF"/>
</g>
<g opacity="0.42">
<path d="M33.0651 36.1875C32.9976 36.1725 32.9301 36.165 32.8701 36.15C32.9301 36.165 32.9976 36.18 33.0651 36.1875Z" fill="#A989BF"/>
</g>
<g opacity="0.42">
<path d="M36.2677 29.8726C36.1402 29.8801 36.0052 29.8876 35.8777 29.8951C36.0052 29.8951 36.1327 29.8801 36.2677 29.8726Z" fill="#A989BF"/>
</g>
<g opacity="0.42">
<path d="M34.6927 36.4575C34.6027 36.4425 34.5277 36.435 34.4377 36.42C34.5202 36.435 34.6027 36.4425 34.6927 36.4575Z" fill="#A989BF"/>
</g>
<g opacity="0.42">
<path d="M36.6353 29.8501C36.7478 29.8426 36.8603 29.8351 36.9728 29.8351C36.8603 29.8351 36.7478 29.8426 36.6353 29.8501Z" fill="#A989BF"/>
</g>
<g opacity="0.42">
<path d="M37.5427 29.805C37.6852 29.7975 37.8352 29.79 37.9777 29.79C37.8352 29.79 37.6927 29.7975 37.5427 29.805Z" fill="#A989BF"/>
</g>
<g opacity="0.42">
<path d="M33.8603 36.33C33.7628 36.315 33.6728 36.3 33.5828 36.285C33.6728 36.3 33.7628 36.315 33.8603 36.33Z" fill="#A989BF"/>
</g>
<g opacity="0.42">
<path d="M34.7227 31.9726C34.0627 33.0001 33.4102 34.0201 32.7502 35.0476C32.5777 35.3701 32.3977 35.6926 32.2327 36.0226C32.4277 36.0676 32.6452 36.1126 32.8627 36.1576C32.9227 36.1726 32.9902 36.1801 33.0577 36.1951C33.2227 36.2251 33.3952 36.2626 33.5752 36.2926C33.6652 36.3076 33.7552 36.3226 33.8527 36.3376C34.0402 36.3676 34.2352 36.3976 34.4377 36.4276C34.5202 36.4426 34.6027 36.4501 34.6927 36.4651C34.9852 36.5026 35.3002 36.5401 35.6302 36.5701C36.9202 34.1626 38.3902 31.8001 39.7402 29.7526C39.6577 29.7526 39.5677 29.7526 39.4852 29.7526C39.3052 29.7526 39.1252 29.7601 38.9452 29.7601C38.7877 29.7601 38.6227 29.7676 38.4652 29.7751C38.3077 29.7826 38.1502 29.7826 37.9852 29.7901C37.8427 29.7976 37.6927 29.7976 37.5502 29.8051C37.3552 29.8126 37.1677 29.8201 36.9802 29.8351C36.8677 29.8426 36.7552 29.8501 36.6427 29.8501C36.5152 29.8576 36.3952 29.8651 36.2677 29.8726C36.1402 29.8801 36.0052 29.8876 35.8777 29.9026C35.5402 30.6001 35.1577 31.2901 34.7227 31.9726Z" fill="#A989BF"/>
</g>
<g opacity="0.42">
<path d="M38.24 36.735C38.135 36.735 38.03 36.7275 37.925 36.7275C38.03 36.7275 38.135 36.7275 38.24 36.735Z" fill="#A989BF"/>
</g>
<g opacity="0.42">
<path d="M37.1453 36.6825C37.1678 36.6825 37.1828 36.6825 37.2053 36.6825C37.4378 36.6975 37.6853 36.705 37.9328 36.72C38.0378 36.7275 38.1428 36.7275 38.2478 36.7275C38.4803 36.735 38.7128 36.7425 38.9528 36.75H38.9603C40.3103 34.2825 41.8178 31.875 43.1903 29.835C43.1678 29.835 43.1528 29.835 43.1303 29.835C42.5303 29.7975 41.9078 29.775 41.2853 29.76C39.9053 31.845 38.4428 34.23 37.1453 36.6825Z" fill="#A989BF"/>
</g>
<path d="M49.115 40.3201C48.695 40.4176 48.3425 40.8526 48.3425 41.2876V42.8476C48.3425 43.2826 48.695 43.5826 49.1225 43.5226L50.2175 43.3651C50.645 43.3051 51.3125 43.0951 51.7025 42.8926L52.79 42.3376C53.0075 42.2251 53.195 42.0076 53.33 41.7601C53.4275 41.5726 53.495 41.3701 53.495 41.1826V40.5076C53.495 40.3651 53.45 40.2451 53.3825 40.1401C53.2475 39.9076 53 39.7576 52.7075 39.7801L51.7175 39.8476C51.515 39.8626 51.2525 39.8926 50.9825 39.9301C50.6825 39.9751 50.3825 40.0276 50.1575 40.0801L49.115 40.3201Z" fill="white"/>
<path d="M29.8476 40.08C29.7576 40.0575 29.6601 40.0425 29.5551 40.02C28.9926 40.8975 28.4226 41.7825 27.8601 42.66L28.3026 42.8925C28.6926 43.095 29.3601 43.305 29.7876 43.365L30.8826 43.5225C31.0851 43.5525 31.2651 43.4925 31.4001 43.3875C31.5576 43.2675 31.6626 43.0725 31.6626 42.84V41.28C31.6626 40.98 31.4976 40.695 31.2576 40.5075C31.1451 40.4175 31.0251 40.35 30.8901 40.32L29.8476 40.08Z" fill="white"/>
<path d="M54.7252 38.1376C54.7177 38.1376 54.7177 38.1376 54.7102 38.1451C54.7402 38.2126 54.7777 38.2876 54.8002 38.3551C54.7777 38.2876 54.7552 38.2126 54.7252 38.1376Z" fill="#7751A1"/>
<path d="M54.8677 38.5276C54.9502 38.7601 55.0177 38.9926 55.0627 39.2101C55.0177 38.9851 54.9502 38.7601 54.8677 38.5276Z" fill="#7751A1"/>
<path d="M54.5076 50.595C54.5076 50.67 54.4851 50.7375 54.4626 50.8125C54.4776 50.7375 54.5076 50.67 54.5076 50.595V46.905V50.595Z" fill="#7751A1"/>
<path d="M40.0101 48.3751C40.0101 48.3751 39.2226 48.3901 38.0076 48.3826C39.2226 48.3901 40.0101 48.3751 40.0101 48.3751C40.0101 48.3751 40.7826 48.3901 41.9901 48.3826C40.7826 48.3901 40.0101 48.3751 40.0101 48.3751Z" fill="#7751A1"/>
<path d="M45.8826 48.2775C47.2326 48.21 48.6651 48.1125 50.0001 47.9475C48.6651 48.1125 47.2326 48.21 45.8826 48.2775Z" fill="#7751A1"/>
<path d="M50.7952 51.3825C50.6077 51.3825 50.4502 51.3075 50.3152 51.2025C50.4427 51.315 50.6077 51.3825 50.7952 51.3825H53.7127C53.8252 51.3825 53.9227 51.36 54.0202 51.3225C53.9227 51.36 53.8252 51.3825 53.7127 51.3825H50.7952Z" fill="#7751A1"/>
<path d="M55.3702 41.6175C55.3102 41.055 55.2502 40.5075 55.1977 39.96C55.1752 39.7575 55.1377 39.5325 55.0852 39.3C55.1377 39.5325 55.1752 39.7575 55.1902 39.96C55.2502 40.5075 55.3177 41.055 55.3702 41.6175Z" fill="#7751A1"/>
<path d="M30.0127 50.595C30.0127 51.03 29.6602 51.3825 29.2252 51.3825H26.3002C25.8652 51.3825 25.5127 51.03 25.5127 50.595V46.905V50.595C25.5127 51.03 25.8727 51.3825 26.3077 51.3825H29.2252C29.6527 51.3825 30.0127 51.03 30.0127 50.595V47.9475C31.2802 48.0975 32.6377 48.195 33.9277 48.2625C32.6377 48.195 31.2877 48.0975 30.0127 47.9475V50.595Z" fill="#7751A1"/>
<path d="M25.5126 50.5951C25.5126 51.0301 25.8651 51.3826 26.3001 51.3826H29.2176C29.6526 51.3826 30.0051 51.0301 30.0051 50.5951V47.9476C31.2801 48.1051 32.6301 48.2026 33.9201 48.2626C35.4576 48.3376 36.9051 48.3676 38.0001 48.3751C39.2151 48.3826 40.0026 48.3676 40.0026 48.3676C40.0026 48.3676 40.7751 48.3826 41.9826 48.3751C43.0326 48.3676 44.4051 48.3451 45.8751 48.2701C47.2251 48.2026 48.6576 48.1051 49.9926 47.9401V50.5876C49.9926 50.8351 50.1201 51.0526 50.3001 51.1951C50.4351 51.3001 50.6001 51.3751 50.7801 51.3751H53.6976C53.8026 51.3751 53.9076 51.3526 54.0051 51.3151C54.2226 51.2251 54.3801 51.0301 54.4476 50.7976C54.4701 50.7301 54.4926 50.6626 54.4926 50.5801V46.8901C55.1826 46.5601 55.5951 46.1551 55.5951 45.6676C55.5951 44.1076 55.4826 42.8176 55.3551 41.6101C55.2951 41.0476 55.2351 40.5001 55.1751 39.9526C55.1526 39.7501 55.1151 39.5251 55.0701 39.2926C55.0626 39.2626 55.0551 39.2326 55.0476 39.2026C54.9951 38.9851 54.9276 38.7526 54.8526 38.5201C54.8301 38.4601 54.8076 38.4076 54.7851 38.3476C54.7551 38.2801 54.7251 38.2051 54.6951 38.1376C50.6151 39.8776 45.5151 40.9126 39.9876 40.9126C36.3351 40.9126 32.8776 40.4551 29.7726 39.6526C29.6976 39.7726 29.6151 39.8926 29.5401 40.0126C29.6451 40.0351 29.7501 40.0501 29.8326 40.0726L30.8826 40.3126C31.0176 40.3426 31.1376 40.4176 31.2501 40.5076C31.4901 40.6951 31.6551 40.9876 31.6551 41.2801V42.8401C31.6551 43.0726 31.5501 43.2601 31.3851 43.3801C31.2501 43.4851 31.0701 43.5451 30.8676 43.5151L29.7726 43.3576C29.3451 43.2976 28.6776 43.0876 28.2876 42.8851L27.8376 42.6526C26.9601 44.0176 26.0901 45.3751 25.2126 46.7401C25.3026 46.7926 25.3851 46.8451 25.4826 46.8901M48.3426 41.2876C48.3426 40.8526 48.6876 40.4176 49.1151 40.3201L50.1651 40.0801C50.3901 40.0276 50.6901 39.9751 50.9901 39.9301C51.2526 39.8926 51.5151 39.8626 51.7176 39.8476L52.7076 39.7801C53.0001 39.7651 53.2476 39.9151 53.3826 40.1476C53.4501 40.2601 53.4951 40.3801 53.4951 40.5226V41.1901C53.4951 41.3776 53.4276 41.5801 53.3301 41.7676C53.2026 42.0151 53.0151 42.2326 52.7976 42.3451L51.7101 42.9001C51.3201 43.0951 50.6526 43.3126 50.2251 43.3726L49.1301 43.5301C48.7026 43.5901 48.3501 43.2826 48.3501 42.8476V41.2876H48.3426ZM45.0651 45.1126C45.1101 45.2176 45.1326 45.3376 45.1251 45.4651C45.1251 45.5626 45.1101 45.6601 45.0801 45.7651C45.0351 45.9001 44.9676 46.0276 44.8851 46.1476C44.7576 46.3276 44.6001 46.4926 44.4126 46.6201C44.1351 46.8151 43.8051 46.9501 43.4826 46.9576L40.9101 47.0476C40.2276 47.0701 39.1101 47.0701 38.4276 47.0476L35.8551 46.9576C35.1726 46.9351 34.4526 46.3951 34.2501 45.7576C34.0551 45.1201 34.4526 44.5951 35.1351 44.5951H44.2026C44.6226 44.6026 44.9376 44.8051 45.0651 45.1126Z" fill="#7751A1"/>
<path d="M53.4951 41.1901C53.4951 41.3776 53.4276 41.5801 53.3301 41.7676C53.4276 41.5726 53.4951 41.3701 53.4951 41.1901V40.5226C53.4951 40.3801 53.4501 40.2601 53.3826 40.1476C53.4501 40.2601 53.4951 40.3801 53.4951 40.5151V41.1901Z" fill="#7751A1"/>
<path d="M49.13 43.5226L50.225 43.3651C50.6525 43.3051 51.32 43.0951 51.71 42.8926L52.7975 42.3376L51.71 42.8926C51.32 43.0951 50.6525 43.3051 50.225 43.3651L49.13 43.5226C48.7025 43.5826 48.35 43.2751 48.35 42.8476V41.2876C48.35 40.8526 48.695 40.4176 49.1225 40.3201L50.165 40.0801C50.39 40.0276 50.69 39.9751 50.99 39.9301C50.69 39.9751 50.39 40.0276 50.165 40.0801L49.115 40.3201C48.695 40.4176 48.3425 40.8526 48.3425 41.2876V42.8476C48.3425 43.2751 48.695 43.5826 49.13 43.5226Z" fill="#D85056"/>
<path d="M29.8477 40.08L30.8902 40.32C31.0252 40.35 31.1452 40.425 31.2577 40.5075C31.1452 40.4175 31.0252 40.35 30.8902 40.3125L29.8477 40.08C29.7652 40.0575 29.6602 40.035 29.5552 40.02C29.6602 40.0425 29.7652 40.0575 29.8477 40.08Z" fill="#7751A1"/>
<path d="M29.7952 43.365C29.3677 43.305 28.7002 43.095 28.3102 42.8925L27.8677 42.66L28.3177 42.8925C28.6927 43.095 29.3602 43.305 29.7952 43.365L30.8902 43.5225C31.0927 43.5525 31.2727 43.4925 31.4077 43.3875C31.2652 43.4925 31.0927 43.5525 30.8902 43.5225L29.7952 43.365Z" fill="#D85056"/>
<path d="M45.0652 45.1125C45.1102 45.2175 45.1327 45.3375 45.1252 45.465C45.1327 45.3375 45.1102 45.2175 45.0652 45.1125Z" fill="#7751A1"/>
<path d="M44.4126 46.6275C44.6001 46.4925 44.7651 46.335 44.8851 46.155C44.7651 46.335 44.6001 46.4925 44.4126 46.6275Z" fill="#7751A1"/>
<path d="M34.25 45.7651C34.4525 46.4026 35.1725 46.9426 35.855 46.9651L38.4275 47.0551C39.11 47.0776 40.2275 47.0776 40.91 47.0551L43.4825 46.9651C43.805 46.9576 44.135 46.8226 44.4125 46.6276C44.135 46.8226 43.805 46.9501 43.4825 46.9651L40.91 47.0476C40.2275 47.0701 39.11 47.0701 38.4275 47.0476L35.855 46.9651C35.1725 46.9426 34.4525 46.4026 34.25 45.7651C34.055 45.1276 34.4525 44.6101 35.135 44.6101H38.4275C39.11 44.6101 40.2275 44.6101 40.91 44.6101H44.2025C44.6225 44.6101 44.9375 44.8126 45.065 45.1126C44.9375 44.8051 44.6225 44.6101 44.2025 44.6101H35.135C34.4525 44.6026 34.055 45.1276 34.25 45.7651Z" fill="#A989BF"/>
<path d="M45.0876 45.7651C45.0426 45.9001 44.9751 46.0276 44.8926 46.1476C44.9751 46.0276 45.0426 45.9001 45.0876 45.7651C45.1176 45.6601 45.1326 45.5626 45.1326 45.4651C45.1251 45.5626 45.1176 45.6601 45.0876 45.7651Z" fill="#A989BF"/>
<path d="M44.2025 44.6101H40.91C40.2275 44.6101 39.11 44.6101 38.4275 44.6101H35.135C34.4525 44.6101 34.055 45.1276 34.25 45.7651C34.445 46.4026 35.165 46.9426 35.8475 46.9651L38.42 47.0476C39.1025 47.0701 40.22 47.0701 40.9025 47.0476L43.475 46.9651C43.7975 46.9576 44.1275 46.8226 44.405 46.6276C44.5925 46.4926 44.75 46.3351 44.8775 46.1551C44.96 46.0351 45.0275 45.9076 45.0725 45.7726C45.1025 45.6676 45.1175 45.5701 45.1175 45.4726C45.1175 45.3451 45.1025 45.2251 45.0575 45.1201C44.9375 44.8051 44.6225 44.6101 44.2025 44.6101Z" fill="#A989BF"/>
</svg>
