<svg width="1022" height="181" viewBox="0 0 1022 181" fill="none" xmlns="http://www.w3.org/2000/svg">
<g clip-path="url(#clip0_1021_687)">
<path d="M165.96 145.34H175.72V116.79H165.96V145.34Z" fill="#C3A4ED"/>
<path d="M80.91 75.28C81.51 73.85 82.93 72.84 84.58 72.84C86.23 72.84 87.65 73.85 88.25 75.28" fill="#CAB5E8"/>
<path d="M1021.6 0H0.279999V181H1021.6V0Z" fill="#B796ED"/>
<path d="M851.35 138.22C832.59 142.09 837.64 145.31 820.66 147.15C804.9 148.86 679.93 137.73 661.1 141.46C649.16 143.82 643.42 137.08 636.63 131.54C633.4 128.91 629.77 125.92 624.6 125.36C617.17 124.55 611.61 129.09 603.55 128.77C597.95 128.55 592.47 127.45 586.87 127.22C573.45 126.67 563.65 132.45 551.18 133.85C537.31 135.41 523.25 132.45 509.37 132.41C506.93 132.41 504.36 132.51 502.28 133.41C500.33 134.26 499.05 135.71 497.34 136.79C491 140.79 481.26 138.8 472.86 137.95C464 137.05 454.84 137.74 446.44 139.93C442.73 140.9 439.16 142.16 435.31 142.8C426.56 144.26 417.46 142.39 408.47 142.23C399.48 142.07 388.95 144.64 386.6 150.82C410 153.39 433.41 155.95 456.81 158.52C464.97 159.41 473.15 160.31 481.39 160.67C495.28 161.28 509.2 160.37 523.06 159.46C571.07 156.31 622.66 160.33 671.51 161.4C702.85 162.09 852.2 162.77 883.54 163.46V138.22C874.2 137.03 860.56 136.33 851.34 138.23L851.35 138.22Z" fill="url(#paint0_linear_1021_687)"/>
<path d="M834.38 131.55L831.02 137.27V151.67H837.73V137.27L834.38 131.55Z" fill="#F2FBFC"/>
<path d="M848.8 137.27H837.73L834.38 131.55H845.45L848.8 137.27Z" fill="#7650A0"/>
<path d="M837.74 151.66H848.81V137.26H837.74V151.66Z" fill="#C3A4ED"/>
<path d="M141.96 149.79H153.38V116.39H141.96V149.79Z" fill="#C3A4ED"/>
<path d="M153.38 149.78H161.73V123.12H153.38V149.78Z" fill="#C3A4ED"/>
<path d="M161.74 149.79H177.42V109.78H161.74V149.79Z" fill="#C3A4ED"/>
<path d="M170.92 127.06L174.27 132.78V147.18H167.56V132.78L170.92 127.06Z" fill="#F2FBFC"/>
<path d="M197.94 107.96L187.51 106.91L183.3 107.96V149.79H197.94V107.96Z" fill="#C3A4ED"/>
<path d="M198.55 127.6H190.41L186.89 122.93H195.04L198.55 127.6Z" fill="#7650A0"/>
<path d="M156.49 132.78H167.56L170.92 127.06H159.85L156.49 132.78Z" fill="#7650A0"/>
<path d="M180.57 147.18H190.25V119.45H180.57V147.18Z" fill="#CEB9EF"/>
<path d="M174.28 147.18H180.57V119.45H174.28V147.18Z" fill="#C3A4ED"/>
<path d="M191.56 146.42H145.51V147.18H191.56V146.42Z" fill="white"/>
<path d="M185.76 147.18C185.29 146.66 184.92 145.71 185.48 145.01C185.96 144.42 187.51 144.55 188.05 143.98C188.52 143.49 187.89 142.11 188.45 141.28C188.94 140.55 190.23 140.79 192.21 141.77C193.25 142.29 193.98 142.85 194.92 142.64C195.55 142.5 195.54 141.78 196.17 141.47C197.32 140.91 198.99 142.42 199.95 141.74C200.89 141.07 200.13 139.27 201.14 138.54C202.34 137.68 204.34 139.07 205.19 139.97C206.28 141.12 206.73 142.45 207.81 143.48C209.16 144.76 209.99 143.15 211.39 143.56C212.15 143.79 212.62 145.12 213.46 144.94C214.08 144.81 214.15 143.73 214.56 143.34C215.12 142.82 215.5 142.9 216.21 143.21C217.07 143.59 219.74 145.71 219.78 147.17H185.74L185.76 147.18Z" fill="#7650A0"/>
<path d="M172.38 147.18C172.16 146.45 172.08 144.77 172.85 144.31C173.78 143.76 175.41 145.5 176.65 145.63C177.76 145.74 178.39 144.93 179.48 145.25C180.09 145.43 181.48 145.97 182.6 147.18H172.38Z" fill="#7650A0"/>
<path d="M161.74 123.13H166.99V109.78H161.74V123.13Z" fill="#9C70D6"/>
<path d="M879.01 115.77V128.29H875.77V123.13H862.09V149.79H891.59V115.77L887.32 114.65L879.01 115.77Z" fill="#C3A4ED"/>
<path d="M891.59 149.79H887.32V114.65L891.59 115.77V149.79Z" fill="#9C70D6"/>
<path d="M875.76 123.13H872.74V128.3H875.76V123.13Z" fill="#9C70D6"/>
<path d="M895.96 135.33H885.97L882.94 130.72H892.94L895.96 135.33Z" fill="#7650A0"/>
<path d="M872.61 137.76H862.09L858.9 132.9H869.42L872.61 137.76Z" fill="#7650A0"/>
<path d="M872.61 137.76H862.09V146.82H872.61V137.76Z" fill="#F2FBFC"/>
<path d="M858.9 132.9L855.71 137.76V146.82H858.9H862.09V137.76L858.9 132.9Z" fill="#C3A4ED"/>
<path d="M895.96 135.33H885.97V146.82H895.96V135.33Z" fill="#F2FBFC"/>
<path d="M1009.23 119.45H969.79V149.79H1009.23V119.45Z" fill="#C3A4ED"/>
<path d="M970.42 123.13H962.07V149.79H970.42V123.13Z" fill="#C3A4ED"/>
<path d="M962.07 109.77H946.39V149.78H962.07V109.77Z" fill="#C3A4ED"/>
<path d="M922.2 149.79H925.87V119.45H922.2V149.79Z" fill="#C3A4ED"/>
<path d="M952.89 127.06L949.53 132.78V147.18H956.25V132.78L952.89 127.06Z" fill="#F2FBFC"/>
<path d="M922.2 115.77H902.59V149.79H922.2V115.77Z" fill="#C3A4ED"/>
<path d="M925.87 95.2L936.3 93.84L940.51 95.2V149.79H925.87V95.2Z" fill="#C3A4ED"/>
<path d="M940.51 149.79H936.3V93.84L940.51 95.2V149.79Z" fill="#9C70D6"/>
<path d="M967.32 132.78H956.25L952.89 127.06H963.96L967.32 132.78Z" fill="#7650A0"/>
<path d="M971.45 141.87C962.37 145.51 952.84 145.5 943.54 143.85C934.23 142.19 927.51 139.57 917.83 139.57C910.83 139.57 905.35 140.75 900.81 142.42C896.32 144.07 892.02 146.52 887.5 148C878.3 151.03 869.95 150.02 860.67 148.34C851.18 146.62 842.58 142.9 831.1 143.02C825.35 143.08 701.75 144.47 699.81 145.2V145.37C693.77 145.42 686.39 148.71 677.94 148.71C667.51 148.71 662.55 144.67 652.13 141.83C643.23 139.4 634.05 139.71 624.65 142.19C616.1 144.45 606.53 148.55 597.94 151.2C589.03 153.96 579.67 153.96 570.54 152.7C561.4 151.44 554.8 149.46 545.3 149.46C538.43 149.46 533.05 150.36 528.59 151.62C523.74 152.99 519.01 155.35 514.16 156.56C508.85 157.88 503.61 155.08 498.94 152.41C495.85 150.64 492.75 148.87 489.66 147.1C489.34 146.92 488.97 146.77 488.71 146.49C488.57 146.34 488.44 146.17 488.3 146.01C488.06 145.73 487.82 145.44 487.57 145.16C487.56 145.17 487.55 145.18 487.53 145.19C485.56 144.45 480.14 143.08 474.42 143.02C462.94 142.89 454.35 146.62 444.85 148.34C435.56 150.02 427.22 151.03 418.02 148C413.5 146.51 409.19 144.06 404.71 142.42C400.17 140.76 394.69 139.57 387.69 139.57C378.01 139.57 371.29 142.19 361.98 143.85C352.68 145.51 267.05 145.51 257.97 141.87C249.21 138.36 239.47 132.96 230.76 129.98C221.18 126.7 211.82 126.3 202.76 129.5C192.15 133.25 187.09 138.58 176.47 138.58C163.19 138.58 150.23 128.31 137.25 135.71C132.8 138.25 128.76 141.77 124.09 143.72C118.08 146.23 110.12 145.63 103.76 145.59C94.87 145.54 85.94 145.07 77.11 144.01C74.16 143.66 71.23 143.2 68.33 142.55C62.42 141.23 56.31 140.88 50.38 139.48C45.02 138.21 39.47 136.55 34.1 137.79C32.36 138.19 30.71 138.89 29.07 139.59C23.16 142.09 6.24 144.59 0.33 147.09C0.23 147.13 0.11 147.17 0 147.17V179.28H23.81C37.29 179.28 50.78 179.18 64.27 179.28C73.62 179.35 82.97 179.52 92.32 179.63C107.81 179.82 123.29 180.01 138.78 180.19L163.52 180.49C210.45 180.49 333.47 180.49 380.4 180.49H485.29C485.6 180.56 485.92 180.62 486.25 180.67C490.16 181.28 494.97 180.49 498.09 180.49H699.81C699.81 180.49 945.17 180.49 1021.52 180.49V131.99C1009.16 135.01 978.5 139.05 971.45 141.87Z" fill="url(#paint1_linear_1021_687)"/>
<path d="M962.07 109.77H956.82V123.12H962.07V109.77Z" fill="#9C70D6"/>
<path d="M1021.23 174.72C975.5 174.72 635.06 174.72 605.61 174.72V177.33H1021.23V174.72Z" fill="white"/>
<path d="M370.31 146.11C370.31 150.56 372.91 154.18 372.91 154.18C372.91 154.18 375.51 150.57 375.51 146.11C375.51 141.65 372.91 138.04 372.91 138.04C372.91 138.04 370.31 141.65 370.31 146.11Z" fill="white"/>
<path d="M373.12 144.69H372.69V158.03H373.12V144.69Z" fill="#7650A0"/>
<path d="M362.19 147.06C362.19 151.51 364.79 155.13 364.79 155.13C364.79 155.13 367.39 151.52 367.39 147.06C367.39 142.6 364.79 138.99 364.79 138.99C364.79 138.99 362.19 142.6 362.19 147.06Z" fill="#7650A0"/>
<path d="M365 146.88H364.57V157.58H365V146.88Z" fill="#7650A0"/>
<path d="M355.78 146.44C355.78 152.29 359.5 157.04 359.5 157.04C359.5 157.04 363.22 152.3 363.22 146.44C363.22 140.59 359.5 135.84 359.5 135.84C359.5 135.84 355.78 140.58 355.78 146.44Z" fill="#C3A4ED"/>
<path d="M359.72 144.58H359.29V158.64H359.72V144.58Z" fill="#7650A0"/>
<path d="M109.88 137.28C109.88 141.73 112.48 145.35 112.48 145.35C112.48 145.35 115.08 141.74 115.08 137.28C115.08 132.82 112.48 129.21 112.48 129.21C112.48 129.21 109.88 132.82 109.88 137.28Z" fill="white"/>
<path d="M112.69 135.86H112.26V149.2H112.69V135.86Z" fill="#7650A0"/>
<path d="M101.76 138.23C101.76 142.68 104.36 146.3 104.36 146.3C104.36 146.3 106.96 142.69 106.96 138.23C106.96 133.77 104.36 130.16 104.36 130.16C104.36 130.16 101.76 133.77 101.76 138.23Z" fill="#7650A0"/>
<path d="M104.57 138.06H104.14V148.76H104.57V138.06Z" fill="#7650A0"/>
<path d="M95.35 137.61C95.35 143.46 99.07 148.21 99.07 148.21C99.07 148.21 102.79 143.47 102.79 137.61C102.79 131.76 99.07 127.01 99.07 127.01C99.07 127.01 95.35 131.75 95.35 137.61Z" fill="#C3A4ED"/>
<path d="M99.28 135.75H98.85V149.81H99.28V135.75Z" fill="#7650A0"/>
<path d="M466.66 138.08C466.66 142.53 469.26 146.15 469.26 146.15C469.26 146.15 471.86 142.54 471.86 138.08C471.86 133.62 469.26 130.01 469.26 130.01C469.26 130.01 466.66 133.62 466.66 138.08Z" fill="white"/>
<path d="M469.48 136.66H469.05V150H469.48V136.66Z" fill="#7650A0"/>
<path d="M458.54 139.03C458.54 143.48 461.14 147.1 461.14 147.1C461.14 147.1 463.74 143.49 463.74 139.03C463.74 134.57 461.14 130.96 461.14 130.96C461.14 130.96 458.54 134.57 458.54 139.03Z" fill="#7650A0"/>
<path d="M461.36 138.85H460.93V149.55H461.36V138.85Z" fill="#7650A0"/>
<path d="M452.13 138.41C452.13 144.26 455.85 149.01 455.85 149.01C455.85 149.01 459.57 144.27 459.57 138.41C459.57 132.56 455.85 127.81 455.85 127.81C455.85 127.81 452.13 132.55 452.13 138.41Z" fill="#C3A4ED"/>
<path d="M456.07 136.55H455.64V150.61H456.07V136.55Z" fill="#7650A0"/>
<path d="M586.83 136.04C586.83 140.49 589.43 144.11 589.43 144.11C589.43 144.11 592.03 140.5 592.03 136.04C592.03 131.58 589.43 127.97 589.43 127.97C589.43 127.97 586.83 131.58 586.83 136.04Z" fill="white"/>
<path d="M589.65 134.62H589.22V147.96H589.65V134.62Z" fill="#7650A0"/>
<path d="M578.71 136.99C578.71 141.44 581.31 145.06 581.31 145.06C581.31 145.06 583.91 141.45 583.91 136.99C583.91 132.54 581.31 128.92 581.31 128.92C581.31 128.92 578.71 132.53 578.71 136.99Z" fill="#7650A0"/>
<path d="M581.53 136.81H581.1V147.51H581.53V136.81Z" fill="#7650A0"/>
<path d="M572.3 136.37C572.3 142.22 576.02 146.97 576.02 146.97C576.02 146.97 579.74 142.23 579.74 136.37C579.74 130.51 576.02 125.77 576.02 125.77C576.02 125.77 572.3 130.51 572.3 136.37Z" fill="#C3A4ED"/>
<path d="M576.24 134.51H575.81V148.57H576.24V134.51Z" fill="#7650A0"/>
<path d="M845.87 158.99C845.87 161.97 847.61 164.39 847.61 164.39C847.61 164.39 849.35 161.97 849.35 158.99C849.35 156.01 847.61 153.59 847.61 153.59C847.61 153.59 845.87 156.01 845.87 158.99Z" fill="white"/>
<path d="M847.76 158.04H847.47V166.97H847.76V158.04Z" fill="#7650A0"/>
<path d="M840.43 159.63C840.43 162.61 842.17 165.03 842.17 165.03C842.17 165.03 843.91 162.61 843.91 159.63C843.91 156.65 842.17 154.23 842.17 154.23C842.17 154.23 840.43 156.65 840.43 159.63Z" fill="#7650A0"/>
<path d="M842.32 159.51H842.03V166.68H842.32V159.51Z" fill="#7650A0"/>
<path d="M836.14 159.22C836.14 163.14 838.63 166.32 838.63 166.32C838.63 166.32 841.12 163.14 841.12 159.22C841.12 155.3 838.63 152.12 838.63 152.12C838.63 152.12 836.14 155.3 836.14 159.22Z" fill="#C3A4ED"/>
<path d="M838.78 157.97H838.49V167.38H838.78V157.97Z" fill="#7650A0"/>
<path d="M183.89 164.51C183.89 169.1 195.68 172.97 201.92 174.36C202.43 174.47 203.02 174.59 203.7 174.72C209.55 175.82 221.32 177.33 232.39 177.33H697.53V174.72C667.3 174.72 280.33 174.72 242.64 174.72C227.38 174.72 215.95 172.9 208.83 171.46C202.56 170.2 188.94 167.44 188.99 164.7C189.05 161.77 203.25 159.59 206.89 158.91C214.22 157.54 220.56 156.5 226.16 155.42C231.39 154.41 236.27 153.29 241.21 151.8C245.93 150.37 249.78 148.99 249.78 146.43C249.78 143.43 240.56 141.25 237.27 140.31C235.8 139.89 230.14 138.44 225.29 137.19C221.41 136.18 218.6 135.46 216.88 134.87C215.17 134.29 211.66 133.08 211.66 132.14C211.66 131.2 214.29 130.82 215.25 130.66C216.23 130.49 217.93 130.21 219.31 130.07C218.62 129.96 218.04 129.9 217.35 129.83C215.74 129.98 213.79 130.27 212.96 130.47C211.91 130.71 210.42 131.19 210.42 132.24C210.42 132.87 211.04 133.65 212.8 134.52C214.79 135.5 218.04 136.56 219.82 137.08C224.02 138.29 231.03 140.1 235.23 141.31C237.57 141.98 239.9 142.69 242.18 143.56C243.19 143.95 246.8 145.06 246.8 146.45C246.8 147.88 242.86 148.89 236.87 150.49C234.06 151.24 224.13 153.22 217.33 154.44C210.6 155.65 199.07 157.81 195.77 158.49C191.39 159.4 183.93 161.42 183.93 164.53L183.89 164.51ZM187 164.59C187 164.59 187 164.61 187 164.62C187 164.62 187 164.6 187 164.59Z" fill="white"/>
<path d="M857.88 93.8C857.88 93.8 857.88 93.71 857.88 93.67C857.88 92.33 858.82 91.25 859.97 91.25C860.4 91.25 860.79 91.4 861.12 91.65C861.61 90.76 862.46 90.17 863.44 90.17C864.55 90.17 865.5 90.93 865.94 92.03C866.3 91.69 866.78 91.47 867.31 91.47C867.54 91.47 867.75 91.51 867.96 91.58C868.22 91.16 868.64 90.88 869.12 90.88C869.58 90.88 869.98 91.13 870.24 91.52C870.41 91.49 870.6 91.47 870.78 91.47C871.83 91.47 872.73 91.98 873.16 92.71C873.36 92.59 873.6 92.52 873.85 92.52C874.55 92.52 875.13 93.07 875.25 93.79H857.9L857.88 93.8Z" fill="#F5F0FC"/>
<path d="M854.92 95.1699C855.16 94.5899 855.73 94.1899 856.4 94.1899C857.07 94.1899 857.64 94.5999 857.88 95.1699" fill="#F5F0FC"/>
<g style="mix-blend-mode:multiply" opacity="0.64">
<path d="M1021.6 0H0.279999V181H1021.6V0Z" fill="#7650A0"/>
</g>
<path fill-rule="evenodd" clip-rule="evenodd" d="M680.89 164.72C681.58 164.16 682.4 163.84 683.29 163.84C685.65 163.84 687.58 166.14 687.72 169.05C687.72 169.08 687.72 169.11 687.72 169.15V170.56C687.72 170.86 687.48 171.1 687.18 171.1H686.77C686.22 172.83 684.87 174.06 683.28 174.06H680.58C678.99 174.06 677.64 172.83 677.09 171.09C677.05 171.09 677.02 171.1 676.98 171.1H675.73C675.18 172.83 673.83 174.06 672.24 174.06H669.54C667.47 174.06 665.79 171.97 665.79 169.38C665.79 166.79 667.47 164.7 669.54 164.7C670.02 164.7 670.47 164.81 670.89 165.01C671.31 164.81 671.77 164.7 672.24 164.7C674 164.7 675.48 166.22 675.88 168.26H676.94C677.34 166.22 678.82 164.7 680.58 164.7C680.68 164.7 680.78 164.7 680.88 164.72H680.89ZM662.93 169.87C662.93 169.87 662.93 169.94 662.93 169.97V171.73C662.93 172.03 662.69 172.27 662.39 172.27H661.42C660.73 173.36 659.67 174.06 658.47 174.06H655.77C653.7 174.06 652.02 171.97 652.02 169.38C652.02 166.8 653.7 164.7 655.77 164.7C655.87 164.7 655.97 164.7 656.07 164.72C656.76 164.16 657.58 163.84 658.47 163.84C660.92 163.84 662.91 166.32 662.91 169.38V169.87H662.93ZM649.82 169.44C650.06 169.49 650.25 169.71 650.25 169.97V171.73C650.25 172.03 650.01 172.27 649.71 172.27H649.02C648.33 173.36 647.27 174.06 646.07 174.06H643.37C641.3 174.06 639.62 171.97 639.62 169.38C639.62 166.8 642.09 164.7 643.37 164.7C644.65 164.7 644.3 164.81 644.72 165.01C645.14 164.81 644.8 164.7 646.07 164.7C647.34 164.7 649.82 168.07 649.82 169.38C649.82 170.69 649.82 169.42 649.82 169.45V169.44Z" fill="#083050"/>
<path fill-rule="evenodd" clip-rule="evenodd" d="M637.11 170.16C637.17 169.98 637.26 169.76 637.25 169.48C637.25 169.1 637.15 169.1 637.12 168.68H637.93C638 168.68 638.05 168.63 638.05 168.56V167.56C638.05 167.5 637.98 167.39 637.96 167.37L636.95 167C636.94 166.2 637.19 165.26 637.46 164.38C637.62 163.85 638.32 161.84 639.45 161.36C641.53 160.48 644.69 159.06 648.31 158.39C652.84 155.92 653.58 155.38 658.25 153.62C660.88 152.11 676.28 152.41 683.67 153.27C684.69 153.33 684.33 154.46 684.24 155.03L686.38 157.8L687.86 158.35C688.06 158.43 688.21 158.57 688.28 158.74L689 160.04C689.17 160.4 689 160.62 688.82 160.91C688.95 161.2 689.52 162.77 689.57 164.02C690.43 164.69 689.93 166.92 689.39 167.46L687.75 169.16C687.65 166.21 685.7 163.85 683.32 163.85C680.94 163.85 678.88 166.33 678.88 169.39C678.88 169.84 678.56 170.67 677.96 170.7H662.98L662.96 169.39C662.96 166.33 660.97 163.85 658.52 163.85C656.07 163.85 654.08 166.33 654.08 169.39C654.08 172.45 653.97 170.7 653.4 170.7H637.83C636.68 170.7 637.01 170.55 637.15 170.16H637.11Z" fill="#D8D7D3"/>
<path fill-rule="evenodd" clip-rule="evenodd" d="M648.64 170.69H638.51L639.67 166.37C639.8 165.9 639.93 165.76 640.42 165.76H644.88C645.37 165.76 645.64 166.05 645.91 166.46L648.65 170.7L648.64 170.69Z" fill="#083050"/>
<path fill-rule="evenodd" clip-rule="evenodd" d="M648.49 170.69H639.09L640.03 167.17C640.16 166.7 640.29 166.56 640.78 166.56H645.24C645.73 166.56 646 166.85 646.27 167.26L648.49 170.69Z" fill="#636D8C"/>
<path fill-rule="evenodd" clip-rule="evenodd" d="M657.32 153.98C657.61 153.86 657.91 153.74 658.23 153.61C662.53 151.41 678.7 152.63 683.65 153.26C684.11 153.29 684.29 153.53 684.34 153.85C674.18 153.2 664.75 152.8 657.32 153.98Z" fill="#F5F4EC"/>
<path fill-rule="evenodd" clip-rule="evenodd" d="M638.44 162.16C638.64 161.81 638.82 161.57 639 161.34C640.28 159.79 646.38 158.74 648.3 158.39C652.06 157.98 656.54 158.39 661.25 159.04C659.05 159.3 655.31 160.02 652.85 161.05L647.15 162.21L638.45 162.16H638.44Z" fill="#F5F4EC"/>
<path fill-rule="evenodd" clip-rule="evenodd" d="M638.32 162.06H647.99V162.62C647.99 162.62 648.06 162.59 648.09 162.59L652.66 160.76C652.82 160.73 652.99 160.77 653.11 160.9C653.37 161.15 654.85 161.95 654.25 162.4L651.46 165.15C651.38 165.22 651.27 165.27 651.14 165.27L648.63 165C648.55 165 648.47 164.98 648.4 164.94L646.9 163.86C646.9 163.86 646.69 163.77 646.52 163.77H639.04C638.87 163.77 638.71 163.87 638.68 163.9L637.92 164.94C637.92 164.94 637.84 164.99 637.8 164.99L637.14 165.31C637.55 164.04 637.79 163.04 638.31 162.05L638.32 162.06Z" fill="#F5F4EC"/>
<path fill-rule="evenodd" clip-rule="evenodd" d="M637.55 164.11C637.77 163.08 638.23 162.18 638.99 161.33L639.39 161.57C642.46 161.57 645.09 161.57 648.25 161.57L652.84 160.6C652.99 160.57 653.16 160.61 653.27 160.73C653.51 160.96 654.66 161.72 654.1 162.15L651.45 163.99C651.37 164.06 651.27 164.1 651.15 164.1H648.77C648.7 164.1 648.62 164.08 648.55 164.04L647.13 163.27C644.28 163.27 641.93 163.27 639.18 163.27L638.42 164.04C638.42 164.04 638.34 164.09 638.3 164.09H637.54L637.55 164.11Z" fill="#083050"/>
<path fill-rule="evenodd" clip-rule="evenodd" d="M648.3 158.38C651.27 156.51 654.95 154.6 658.24 153.57C661.79 152.91 671.74 152.78 677.81 153.57C680.35 153.9 686.05 157.11 681.62 157.87C681.34 157.92 681.08 157.96 680.7 157.99L666.11 159.17C665.35 159.33 664.42 159.34 663.77 159.34C663.76 159.34 663.74 159.34 663.73 159.33C662.73 159.3 661.73 159.14 660.72 158.95C658.01 158.46 650.77 157.94 648.29 158.37L648.3 158.38Z" fill="#083050"/>
<path fill-rule="evenodd" clip-rule="evenodd" d="M648.63 158.18C651.35 156.48 654.61 154.75 657.61 153.82C659.31 153.51 662.95 153.29 666.84 153.27C665.67 154.78 662.16 158.03 660.77 158.82C660.53 158.78 660.28 158.74 660.04 158.69C657.57 158.25 650.89 157.79 648.63 158.18ZM668.08 153.27C669.81 153.28 671.56 153.33 673.17 153.44C673.63 155.01 673.86 156.61 673.93 158.23L667.13 158.74C667.51 158.41 667.59 157.91 667.1 157.12C667.02 156.93 665.37 156.89 664.68 157C665.63 155.65 667.11 154.11 668.07 153.27H668.08ZM674.02 153.49C675.02 153.57 675.95 153.66 676.78 153.78C679.29 154.15 685.04 157.39 679.42 157.81L675.28 158.12C675.04 156.54 674.68 154.99 674.02 153.49Z" fill="#748995"/>
<path fill-rule="evenodd" clip-rule="evenodd" d="M681.68 157.13C681.42 157.47 680.73 157.72 679.42 157.82L675.28 158.13C675.26 157.98 675.23 157.84 675.21 157.69C677.41 157.61 679.59 157.44 681.69 157.13H681.68ZM673.93 158.23L667.13 158.74C667.39 158.51 667.51 158.2 667.4 157.77C669.53 157.77 671.72 157.79 673.91 157.74C673.92 157.91 673.93 158.07 673.94 158.24L673.93 158.23ZM660.77 158.82C660.53 158.78 660.28 158.74 660.04 158.69C658.84 158.48 657.6 158.37 656.39 158.27C658.15 157.98 660.1 157.86 662.18 157.8C661.62 158.25 661.13 158.62 660.77 158.82Z" fill="#94A2AA"/>
<path fill-rule="evenodd" clip-rule="evenodd" d="M637.96 167.37L637.17 167.08C637.17 167.08 637.07 167.26 637.06 167.33C637.04 167.46 637.09 168.44 637.27 168.68H637.93C638.13 168.68 638.1 167.44 637.96 167.37Z" fill="#083050"/>
<path fill-rule="evenodd" clip-rule="evenodd" d="M646.79 170.69H639.41L639.64 169.43C639.74 168.88 639.9 168.73 640.39 168.73H645.11C645.6 168.73 645.87 169.07 646.14 169.54L646.79 170.69Z" fill="#F5F4EC"/>
<path fill-rule="evenodd" clip-rule="evenodd" d="M648.43 161.94L652.26 161.24C652.39 161.22 652.53 161.24 652.62 161.33L653.24 161.81C653.41 161.94 653.42 162.12 653.21 162.25L651.1 163.67C651.04 163.72 650.95 163.75 650.85 163.75H648.87C648.81 163.75 648.75 163.74 648.69 163.71L647.77 163.16C647.58 163.07 647.53 162.86 647.67 162.72L648.22 162.04C648.27 161.99 648.34 161.95 648.43 161.93V161.94Z" fill="#B9C9D2"/>
<path fill-rule="evenodd" clip-rule="evenodd" d="M653.36 162.06C653.36 162.14 653.29 162.22 653.21 162.27L651.24 163.59C651.18 163.64 651.11 163.63 651.02 163.63H649.17C649.11 163.63 649.05 163.62 649 163.59C648.75 163.44 648.28 163.2 648.08 163.03C649.54 162.4 651.77 162.14 653.37 162.06H653.36Z" fill="#748995"/>
<path fill-rule="evenodd" clip-rule="evenodd" d="M637.64 163.76C637.27 163.76 638.28 161.62 638.8 161.74L639.05 161.94C639.05 161.94 639.13 162 639.15 162.05C639.2 162.35 639.13 162.99 638.96 163.17L638.4 163.72C638.4 163.72 638.34 163.76 638.31 163.76H637.65H637.64Z" fill="#B9C9D2"/>
<path fill-rule="evenodd" clip-rule="evenodd" d="M637.73 163.6C637.74 163.41 637.84 163.12 638.01 162.79L638.88 162.92C638.94 162.92 638.94 162.99 638.91 163.02L638.33 163.58C638.33 163.58 638.26 163.6 638.22 163.6H637.73Z" fill="#748995"/>
<path fill-rule="evenodd" clip-rule="evenodd" d="M658.75 173.39C660.64 173.39 662.17 171.48 662.17 169.12C662.17 166.76 660.64 164.85 658.75 164.85C656.86 164.85 655.33 166.76 655.33 169.12C655.33 171.48 656.86 173.39 658.75 173.39ZM658.75 172.24C660.13 172.24 661.25 170.84 661.25 169.12C661.25 167.4 660.13 166 658.75 166C657.37 166 656.25 167.4 656.25 169.12C656.25 170.84 657.37 172.24 658.75 172.24Z" fill="#636D8C"/>
<path fill-rule="evenodd" clip-rule="evenodd" d="M639.4 170.69H648.26C648.26 171.07 647.95 171.37 647.58 171.37H640.08C639.7 171.37 639.4 171.06 639.4 170.69Z" fill="#636D8C"/>
<path fill-rule="evenodd" clip-rule="evenodd" d="M649.05 163.33C649.22 163.33 649.36 163.22 649.44 163.07L649.75 163.02C649.65 163.34 649.4 163.6 649.05 163.6C648.77 163.6 648.59 163.44 648.51 163.23L648.79 163.18C648.84 163.27 648.93 163.33 649.06 163.33H649.05ZM649.53 162.79C649.53 162.79 649.53 162.73 649.53 162.7C649.53 162.62 649.53 162.54 649.5 162.47C649.46 162.33 649.36 162.23 649.19 162.23C648.97 162.23 648.81 162.41 648.74 162.62C648.71 162.7 648.7 162.79 648.69 162.87C648.69 162.89 648.69 162.91 648.69 162.93L648.43 162.97C648.43 162.97 648.43 162.9 648.43 162.86C648.43 162.75 648.45 162.64 648.49 162.54C648.6 162.23 648.84 161.97 649.19 161.97C649.49 161.97 649.67 162.15 649.75 162.4C649.78 162.5 649.79 162.61 649.79 162.72C649.79 162.73 649.79 162.75 649.79 162.76L649.52 162.8L649.53 162.79ZM650.62 163.33C650.9 163.33 651.1 163.11 651.19 162.84C651.19 162.82 651.2 162.8 651.21 162.78L651.49 162.73C651.48 162.79 651.46 162.86 651.44 162.92C651.32 163.29 651.03 163.59 650.62 163.59C650.27 163.59 650.06 163.38 649.96 163.09C649.95 163.05 649.94 163.02 649.93 162.98L650.19 162.94C650.19 162.94 650.2 162.99 650.21 163.01C650.27 163.19 650.4 163.32 650.61 163.32L650.62 163.33ZM651.24 162.51C651.24 162.42 651.23 162.33 651.2 162.25C651.14 162.07 651.01 161.94 650.8 161.94C650.52 161.94 650.32 162.16 650.23 162.43C650.2 162.51 650.18 162.6 650.18 162.69L649.91 162.73C649.91 162.6 649.94 162.47 649.98 162.35C650.1 161.98 650.39 161.67 650.8 161.67C651.15 161.67 651.36 161.88 651.45 162.17C651.48 162.26 651.49 162.36 651.5 162.47L651.23 162.51H651.24Z" fill="white"/>
<path fill-rule="evenodd" clip-rule="evenodd" d="M683.55 173.39C685.44 173.39 686.97 171.48 686.97 169.12C686.97 166.76 685.44 164.85 683.55 164.85C681.66 164.85 680.13 166.76 680.13 169.12C680.13 171.48 681.66 173.39 683.55 173.39ZM683.55 172.24C684.93 172.24 686.05 170.84 686.05 169.12C686.05 167.4 684.93 166 683.55 166C682.17 166 681.05 167.4 681.05 169.12C681.05 170.84 682.17 172.24 683.55 172.24Z" fill="#636D8C"/>
<path fill-rule="evenodd" clip-rule="evenodd" d="M654.53 163.73C653.87 164.59 653.43 165.69 653.29 167.01C653.21 167.76 652.97 167.9 652.27 167.87H648.58C648.13 167.87 647.72 167.53 647.42 167.2L645.69 165.22C645.44 164.93 644.78 164.96 644.4 164.96H639.77C639.49 164.96 639.21 164.96 639.1 165.21C638.64 166.28 638.38 167.54 638.04 168.55C638.02 168.61 637.99 168.67 637.92 168.67H637.11C637.14 169.09 637.23 169.08 637.24 169.47H637.49C637.87 169.47 638.2 169.02 638.3 168.65L639.09 165.74C639.16 165.47 639.48 165.22 639.76 165.22H644.39C644.77 165.22 645.2 165.42 645.41 165.75L647.41 168.8C647.65 169.17 648.12 169.47 648.57 169.47H652.26C652.95 169.49 653.2 169.36 653.28 168.61C653.63 165.37 655.8 162.85 658.48 162.85C661.16 162.85 663.44 165.37 663.68 168.63C663.73 169.25 663.89 169.47 664.52 169.47H677.25C677.78 169.47 678.03 169.2 678.1 168.54C678.42 165.33 680.63 162.85 683.29 162.85C685.08 162.85 686.64 163.99 687.61 165.7C687.84 166.1 689.24 166.13 690.01 165.31C690.12 164.87 689.89 164.09 689.54 163.94C688.82 164.43 687.83 164.49 687.6 164.09C686.63 162.39 685.07 161.78 683.28 161.78C680.62 161.78 678.41 163.73 678.09 166.94C678.02 167.6 677.77 167.87 677.24 167.87H664.51C663.89 167.87 663.72 167.66 663.67 167.03C663.55 165.39 662.85 164.14 661.97 163.17C661.24 162.37 659.79 161.92 662.64 161.51C669.93 160.48 680.91 159.98 687.83 159.75C687.47 159.32 685.64 156.81 684.83 155.82C685.31 157.1 683.61 158.01 682.19 158.14C676.69 158.62 657.97 159.23 654.51 163.71L654.53 163.73Z" fill="#F5F4EC"/>
<path fill-rule="evenodd" clip-rule="evenodd" d="M687.84 158.35C688.04 158.43 688.19 158.57 688.26 158.74L688.98 160.04C689.15 160.4 688.98 160.62 688.8 160.91H688.15C688.08 160.91 688 160.89 687.92 160.84L686.08 159.3C685.83 159.14 685.71 158.76 685.84 158.51L686.36 157.81C686.36 157.81 687.7 158.29 687.84 158.34V158.35Z" fill="#F05A22"/>
<path fill-rule="evenodd" clip-rule="evenodd" d="M687.84 158.35C688.04 158.43 688.19 158.57 688.26 158.74L688.59 159.34L686.69 159.45L686.21 159.03C685.79 158.76 686.09 158.15 686.35 157.8C686.55 157.85 687.67 158.29 687.83 158.35H687.84Z" fill="#F9AF72"/>
<path fill-rule="evenodd" clip-rule="evenodd" d="M647.38 161.98C647.48 161.98 647.56 162.06 647.56 162.16C647.56 162.26 647.48 162.34 647.38 162.34C644.8 162.34 642.22 162.34 639.64 162.34C639.54 162.34 639.46 162.26 639.46 162.16C639.46 162.06 639.54 161.98 639.64 161.98C642.22 161.98 644.8 161.98 647.38 161.98ZM647.01 162.52C647.11 162.52 647.19 162.6 647.19 162.7C647.19 162.8 647.11 162.88 647.01 162.88C644.57 162.88 642.12 162.88 639.68 162.88C639.58 162.88 639.5 162.8 639.5 162.7C639.5 162.6 639.58 162.52 639.68 162.52C642.12 162.52 644.57 162.52 647.01 162.52Z" fill="#636D8C"/>
<path fill-rule="evenodd" clip-rule="evenodd" d="M664.54 168.92C664.54 168.92 664.54 168.98 664.51 168.99C664.48 169 664.45 168.99 664.44 168.96C663.8 167.58 663.85 165.51 663.89 163.62C663.93 161.78 663.97 160.12 663.36 159.51C663.34 159.49 663.34 159.46 663.36 159.43C663.38 159.41 663.41 159.41 663.44 159.43C664.08 160.08 664.04 161.76 664 163.62C663.96 165.49 663.91 167.55 664.54 168.91V168.92ZM674.67 158.78C674.67 158.78 674.67 158.72 674.69 158.71C674.72 158.69 674.75 158.71 674.76 158.73C675.47 159.91 675.28 162.45 675.09 164.93C674.97 166.5 674.85 168.04 674.96 169.21C674.96 169.24 674.94 169.27 674.91 169.27C674.88 169.27 674.85 169.25 674.85 169.22C674.74 168.04 674.85 166.49 674.98 164.92C675.17 162.45 675.36 159.94 674.67 158.78ZM682.98 157.95C682.98 157.95 682.95 157.9 682.98 157.87C683 157.85 683.03 157.84 683.06 157.87C683.13 157.93 683.2 158 683.26 158.07C683.32 158.14 683.38 158.21 683.43 158.28C683.87 158.91 683.79 159.64 683.43 160.32C683.08 161 682.45 161.64 681.77 162.11C681.75 162.13 681.71 162.12 681.69 162.1C681.67 162.08 681.68 162.04 681.7 162.02C682.37 161.56 682.99 160.93 683.33 160.27C683.67 159.62 683.74 158.93 683.33 158.34C683.28 158.27 683.23 158.21 683.17 158.14C683.11 158.08 683.05 158.01 682.98 157.95Z" fill="#BBBBB8"/>
<path fill-rule="evenodd" clip-rule="evenodd" d="M664.69 158.98C665.81 158.98 668.06 158.95 667.97 157.8C667.94 157.45 667.83 157.09 667.44 157.02C667.03 156.95 666.25 156.91 665.65 156.93C664.89 156.97 664.75 157.11 664.35 157.72C664.03 158.22 663.87 158.81 664.69 158.98Z" fill="#D8D7D3"/>
<path fill-rule="evenodd" clip-rule="evenodd" d="M667.98 157.76C667.95 157.43 667.83 157.08 667.45 157.02C667.04 156.95 666.26 156.91 665.66 156.93C664.9 156.97 664.76 157.11 664.36 157.72L664.33 157.76H667.97H667.98Z" fill="#F5F4EC"/>
<path fill-rule="evenodd" clip-rule="evenodd" d="M647.77 167.37L650.56 166.95C651.02 166.88 651.84 168.68 651.21 168.68H648.5C647.97 168.68 647.35 167.46 647.76 167.37H647.77Z" fill="#083050"/>
<path fill-rule="evenodd" clip-rule="evenodd" d="M636.99 168.5C636.89 168.5 636.81 168.42 636.81 168.32C636.81 168.22 636.89 168.14 636.99 168.14H637.6C637.7 168.14 637.78 168.22 637.78 168.32C637.78 168.42 637.7 168.5 637.6 168.5H636.99ZM648.53 168.5C648.43 168.5 648.35 168.42 648.35 168.32C648.35 168.22 648.43 168.14 648.53 168.14H650.88C650.98 168.14 651.06 168.22 651.06 168.32C651.06 168.42 650.98 168.5 650.88 168.5H648.53Z" fill="#F48120"/>
<path d="M216.6 130.39C220.234 130.39 223.18 130.068 223.18 129.67C223.18 129.272 220.234 128.95 216.6 128.95C212.966 128.95 210.02 129.272 210.02 129.67C210.02 130.068 212.966 130.39 216.6 130.39Z" fill="#432F72"/>
<path d="M217.75 111.92C218.04 111.98 218.32 112.07 218.6 112.17C222.41 113.58 223.92 118.11 221.74 121.53C220.17 123.99 218.59 126.44 217.01 128.9C216.6 129.53 216.19 129.53 215.78 128.9C214.21 126.46 212.64 124.01 211.08 121.57C208.55 117.61 210.89 112.51 215.54 111.83C215.61 111.83 216.74 111.73 217.75 111.93V111.92ZM219.29 118.16C219.36 116.62 218.07 115.27 216.45 115.2C214.91 115.13 213.56 116.42 213.49 118.04C213.42 119.58 214.71 120.93 216.33 121C217.86 121.07 219.22 119.77 219.29 118.16Z" fill="#FFCB64"/>
<path d="M219.04 114.91C219.26 114.7 219.46 114.51 219.7 114.28C219.87 114.48 220.03 114.67 220.2 114.87C220.01 115.07 219.82 115.28 219.63 115.48C221.44 117.97 220.49 120.6 218.93 121.79C217.11 123.19 214.58 123.01 213.01 121.36C211.46 119.74 211.38 117.17 212.84 115.46C214.3 113.75 216.93 113.3 219.04 114.91Z" fill="#7650A0"/>
<path d="M214.75 113.48V112.79H217.65V113.48H214.75Z" fill="#7650A0"/>
<path d="M215.55 114.43V113.4H216.84V114.43H215.55Z" fill="#7650A0"/>
<path d="M219.5 118.39C219.48 120.22 217.98 121.64 216.11 121.62C214.32 121.6 212.88 120.09 212.9 118.25C212.92 116.57 214.21 115.2 215.86 115.04C215.98 115.03 216.11 115.02 216.24 115.02C216.34 115.02 216.43 115.02 216.53 115.04C218.23 115.2 219.52 116.62 219.5 118.39Z" fill="white"/>
<path d="M214.6 117.81C214.6 117.81 214.64 117.84 214.66 117.85C214.98 118.15 215.29 118.45 215.6 118.76C215.66 118.82 215.7 118.82 215.76 118.76C216.26 118.27 216.77 117.78 217.28 117.29C217.56 117.02 217.84 116.76 218.11 116.49C218.17 116.43 218.21 116.44 218.26 116.49C218.46 116.7 218.66 116.91 218.86 117.12C218.9 117.16 218.9 117.18 218.86 117.22C218.47 117.59 218.08 117.96 217.69 118.34C217.5 118.52 217.32 118.7 217.13 118.88C216.67 119.32 216.21 119.76 215.76 120.21C215.7 120.27 215.66 120.26 215.6 120.21C215.21 119.83 214.82 119.44 214.42 119.07C214.25 118.91 214.09 118.75 213.93 118.59C213.89 118.55 213.87 118.52 213.93 118.47C214.13 118.26 214.34 118.05 214.54 117.84C214.56 117.82 214.57 117.8 214.6 117.79V117.81Z" fill="#7650A0"/>
<path d="M327.2 137.76H337.71L340.9 132.9H330.39L327.2 137.76Z" fill="#7650A0"/>
<path d="M327.19 146.82H337.71V137.76H327.19V146.82Z" fill="#F2FBFC"/>
<path d="M340.9 132.9L344.09 137.76V146.82H340.9H337.71V137.76L340.9 132.9Z" fill="#C3A4ED"/>
</g>
<defs>
<linearGradient id="paint0_linear_1021_687" x1="631.9" y1="86.8" x2="640.32" y2="239.36" gradientUnits="userSpaceOnUse">
<stop offset="0.05" stop-color="#50328C"/>
<stop offset="0.33" stop-color="#644397" stop-opacity="0.52"/>
<stop offset="0.34" stop-color="#644397" stop-opacity="0.5"/>
<stop offset="0.53" stop-color="#6F4B9D" stop-opacity="0"/>
</linearGradient>
<linearGradient id="paint1_linear_1021_687" x1="510.76" y1="145.87" x2="510.76" y2="204.03" gradientUnits="userSpaceOnUse">
<stop stop-color="#945FC5"/>
<stop offset="1" stop-color="white"/>
</linearGradient>
<clipPath id="clip0_1021_687">
<rect width="1021.6" height="181" fill="white"/>
</clipPath>
</defs>
</svg>
