<svg width="70" height="39" viewBox="0 0 70 39" fill="none" xmlns="http://www.w3.org/2000/svg">
<path d="M32.7632 29.5877L32.5868 29.3189L32.3593 29.5476C31.3164 30.5867 30.1283 31.4493 28.8305 32.1033C27.5876 32.7292 26.2662 33.1545 24.8978 33.3711V20.9536L34.061 11.5773C34.6139 12.3958 35.0844 13.2704 35.4529 14.1852L35.5666 14.4701L35.8254 14.3176L35.8764 14.2895C35.9078 14.2695 35.9391 14.2534 35.9666 14.2374C37.0291 13.6355 38.2015 13.2383 39.4562 13.0538L39.7855 13.0056L39.6601 12.6887C38.3309 9.27839 36.0607 6.36559 33.0965 4.26726C30.0617 2.12078 26.5054 0.985352 22.808 0.985352C19.1106 0.985352 15.5935 2.10875 12.5666 4.23516C9.61414 6.30943 7.34394 9.19413 5.99906 12.5763L5.85791 12.9294L6.2304 12.9455C7.59487 13.0097 8.87701 13.3025 10.0337 13.8201L10.2689 13.9244L10.3787 13.6837C10.712 12.9495 11.108 12.2393 11.5589 11.5733L20.7221 20.9496V33.3671C18.2362 32.9779 15.9072 31.8907 13.9703 30.2096L13.7625 30.029L13.5939 30.2457C12.845 31.2086 11.9236 32.003 10.8571 32.6088C10.7826 32.653 10.7002 32.6971 10.6022 32.7492L10.2689 32.9258L10.5473 33.1866C13.9036 36.3441 18.2597 38.0854 22.8119 38.0854C27.5994 38.0854 32.1162 36.1876 35.5353 32.7372L35.7705 32.5005L35.4882 32.32C34.3982 31.6178 33.4807 30.6991 32.7593 29.5877H32.7632ZM31.1948 8.47596L22.8119 17.0539L14.429 8.47596C15.5622 7.57324 16.8208 6.86309 18.1656 6.36158C19.6556 5.80791 21.2161 5.53108 22.8119 5.53108C24.4077 5.53108 25.9683 5.81192 27.4582 6.36158C28.8031 6.85908 30.0617 7.56923 31.1948 8.47596Z" fill="#D84E55"/>
<path d="M4.13264 17.3145V15.4288H0V32.5244H4.313V24.2234C4.313 22.6506 4.70509 21.4349 5.48143 20.6125C6.25385 19.794 7.35171 19.3767 8.74755 19.3767C8.99065 19.3767 9.27295 19.4048 9.57878 19.465L9.89246 19.5252V15.2402H9.62975C7.16742 15.2402 5.32067 15.9343 4.13656 17.3105L4.13264 17.3145Z" fill="#D84E55"/>
<path d="M47.6077 8.97754H47.345V17.074C46.7922 16.5404 46.1491 16.1191 45.4355 15.8222C44.518 15.437 43.4947 15.2445 42.3968 15.2445C40.8049 15.2445 39.3503 15.6096 38.072 16.3317C36.7899 17.0579 35.7744 18.0931 35.0451 19.413C34.3197 20.729 33.9512 22.2657 33.9512 23.9788C33.9512 25.692 34.3197 27.2326 35.0451 28.5607C35.7744 29.8927 36.7899 30.9318 38.072 31.658C39.3463 32.3802 40.801 32.7453 42.3968 32.7453C43.5378 32.7453 44.5964 32.5407 45.5453 32.1355C46.2824 31.8185 46.9372 31.3772 47.4979 30.8155V32.5286H51.6619V8.98155H47.6116L47.6077 8.97754ZM47.4038 23.9748C47.4038 24.9578 47.1999 25.8324 46.8 26.5747C46.4001 27.3129 45.8551 27.8866 45.1728 28.2838C44.4906 28.681 43.7064 28.8856 42.8477 28.8856C41.989 28.8856 41.2088 28.685 40.5226 28.2838C39.8404 27.8866 39.2954 27.3129 38.8954 26.5747C38.4955 25.8324 38.2916 24.9578 38.2916 23.9748C38.2916 22.9918 38.4955 22.1172 38.8954 21.375C39.2954 20.6367 39.8404 20.063 40.5226 19.6658C41.2049 19.2686 41.989 19.064 42.8477 19.064C43.7064 19.064 44.4867 19.2646 45.1728 19.6658C45.8551 20.063 46.4001 20.6367 46.8 21.375C47.1999 22.1172 47.4038 22.9918 47.4038 23.9748Z" fill="#D84E55"/>
<path d="M68.9255 19.457C68.208 18.1249 67.1964 17.0778 65.9143 16.3436C64.636 15.6093 63.1735 15.2402 61.5581 15.2402C59.9427 15.2402 58.4332 15.6174 57.1275 16.3596C55.8179 17.1059 54.7789 18.157 54.0417 19.485C53.3046 20.8131 52.9321 22.3216 52.9321 23.9746C52.9321 25.6276 53.3164 27.1723 54.0731 28.4963C54.8338 29.8283 55.9238 30.8794 57.3157 31.6217C58.6998 32.3639 60.323 32.7371 62.1345 32.7371C63.5539 32.7371 64.8517 32.5003 65.9888 32.0349C67.1337 31.5655 68.0982 30.8634 68.851 29.9406L68.9961 29.7641L68.8471 29.5916L66.8161 27.2044L66.6279 26.9837L66.4279 27.1923C65.334 28.3318 63.9185 28.9095 62.2208 28.9095C60.8916 28.9095 59.7663 28.5685 58.8762 27.8944C58.0803 27.2886 57.551 26.4782 57.3039 25.4832H69.9175L69.9371 25.2344C69.9802 24.7249 69.9998 24.3437 69.9998 24.0629C69.9998 22.3296 69.6352 20.7769 68.9216 19.453L68.9255 19.457ZM65.8241 22.3738H57.2687C57.4765 21.3667 57.9431 20.5402 58.6567 19.9184C59.4408 19.2323 60.4211 18.8832 61.562 18.8832C62.703 18.8832 63.7029 19.2363 64.4792 19.9344C65.181 20.5683 65.6359 21.3868 65.828 22.3778L65.8241 22.3738Z" fill="#D84E55"/>
</svg>
